<svg width="164.5" height="177" viewBox="0 0 328 352" xmlns="http://www.w3.org/2000/svg" xmlns:xlink="http://www.w3.org/1999/xlink"><defs><filter x="-57%" y="-52.3%" width="216.6%" height="204.7%" filterUnits="objectBoundingBox" id="b"><feGaussianBlur stdDeviation="30" in="SourceGraphic"/></filter><filter x="-4%" y="-3.3%" width="108%" height="106.7%" filterUnits="objectBoundingBox" id="e"><feGaussianBlur stdDeviation="5" in="SourceAlpha" result="shadowBlurInner1"/><feOffset dx="3" dy="-4" in="shadowBlurInner1" result="shadowOffsetInner1"/><feComposite in="shadowOffsetInner1" in2="SourceAlpha" operator="arithmetic" k2="-1" k3="1" result="shadowInnerInner1"/><feColorMatrix values="0 0 0 0 1 0 0 0 0 1 0 0 0 0 1 0 0 0 0.25 0" in="shadowInnerInner1"/></filter><filter x="-1.4%" y="-3.5%" width="105.4%" height="107%" filterUnits="objectBoundingBox" id="h"><feGaussianBlur stdDeviation="5" in="SourceAlpha" result="shadowBlurInner1"/><feOffset dx="4" dy="1" in="shadowBlurInner1" result="shadowOffsetInner1"/><feComposite in="shadowOffsetInner1" in2="SourceAlpha" operator="arithmetic" k2="-1" k3="1" result="shadowInnerInner1"/><feColorMatrix values="0 0 0 0 1 0 0 0 0 1 0 0 0 0 1 0 0 0 0.5 0" in="shadowInnerInner1"/></filter><filter x="-39.8%" y="-28.1%" width="179.5%" height="156.2%" filterUnits="objectBoundingBox" id="j"><feGaussianBlur stdDeviation="10" in="SourceGraphic"/></filter><filter x="-10%" y="-7%" width="120%" height="114.1%" filterUnits="objectBoundingBox" id="l"><feGaussianBlur stdDeviation="5" in="SourceAlpha" result="shadowBlurInner1"/><feOffset dy="5" in="shadowBlurInner1" result="shadowOffsetInner1"/><feComposite in="shadowOffsetInner1" in2="SourceAlpha" operator="arithmetic" k2="-1" k3="1" result="shadowInnerInner1"/><feColorMatrix values="0 0 0 0 1 0 0 0 0 1 0 0 0 0 1 0 0 0 0.5 0" in="shadowInnerInner1" result="shadowMatrixInner1"/><feGaussianBlur stdDeviation="2.5" in="SourceAlpha" result="shadowBlurInner2"/><feOffset dy="-5" in="shadowBlurInner2" result="shadowOffsetInner2"/><feComposite in="shadowOffsetInner2" in2="SourceAlpha" operator="arithmetic" k2="-1" k3="1" result="shadowInnerInner2"/><feColorMatrix values="0 0 0 0 0.0588235294 0 0 0 0 0.874509804 0 0 0 0 1 0 0 0 0.31 0" in="shadowInnerInner2" result="shadowMatrixInner2"/><feMerge><feMergeNode in="shadowMatrixInner1"/><feMergeNode in="shadowMatrixInner2"/></feMerge></filter><linearGradient x1="88.536%" y1="0%" x2="11.464%" y2="100%" id="a"><stop stop-color="#02E8FF" offset="0%"/><stop stop-color="#A177FF" offset="100%"/></linearGradient><linearGradient x1="84.722%" y1="0%" x2="15.278%" y2="100%" id="c"><stop stop-color="#02E8FF" offset="0%"/><stop stop-color="#A177FF" offset="100%"/></linearGradient><linearGradient x1="88.281%" y1="0%" x2="11.719%" y2="100%" id="f"><stop stop-color="#02E8FF" offset="0%"/><stop stop-color="#A177FF" offset="100%"/></linearGradient><linearGradient x1="74.95%" y1="0%" x2="25.05%" y2="100%" id="i"><stop stop-color="#00C0D3" offset="0%"/><stop stop-color="#702FFF" offset="100%"/></linearGradient><path d="M10 10L175 0l10 10v112.5c0 48.325-39.175 87.5-87.5 87.5S10 170.825 10 122.5V10z" id="d"/><path d="M10 10L175 0v112.5c0 48.325-39.175 87.5-87.5 87.5-45.848 0-83.016-37.167-83.016-83.016 0-1.455.038-2.91.115-4.363L10 10z" id="g"/><path id="k" d="M125.188 143.531l-34.754 9.102-34.548-11.906-1.083-28.02 16.371.188.815 14.484 18.503 6.135.046.103h.012l18.51-5.05 1.382-24.352-37.738-.085-.873-18.268 39.571-.694.923-19.486-58.952 2.28L53 50.512 128.164 46z"/></defs><g fill="none" fill-rule="evenodd"><path d="M39.629 88.6L182 80v96.5c0 41.697-33.803 75.5-75.5 75.5-39.554 0-71.618-32.065-71.618-71.618 0-1.26.033-2.52.1-3.777L39.628 88.6z" fill="url(#a)" opacity=".5" filter="url(#b)" transform="translate(56 10)"/><g transform="translate(56 10)"><use fill="url(#c)" xlink:href="#d"/><use fill-opacity=".09" fill="#000" xlink:href="#d"/><use fill="#000" filter="url(#e)" xlink:href="#d"/></g><g transform="translate(56 10)"><use fill="url(#f)" xlink:href="#g"/><use fill="#000" filter="url(#h)" xlink:href="#g"/></g><path fill="url(#i)" filter="url(#j)" d="M138.29 156.897l-34.862 9.025-34.72-12.045-1.186-28.111 16.432.24.869 14.53 18.596 6.21.046.104h.012l18.565-5.007 1.303-24.417-37.887-.207-.94-18.328 39.725-.562.859-19.536-59.174 2.078-.437-17.507 75.45-4.25z" transform="translate(56 10)"/><g transform="translate(56 10)"><use fill="#FFF" xlink:href="#k"/><use fill="#000" filter="url(#l)" xlink:href="#k"/></g></g></svg>