<svg width="82.25" height="88.5" viewBox="0 0 329 354" xmlns="http://www.w3.org/2000/svg" xmlns:xlink="http://www.w3.org/1999/xlink"><defs><filter x="-57.2%" y="-52.5%" width="217%" height="205%" filterUnits="objectBoundingBox" id="b"><feGaussianBlur stdDeviation="30.1" in="SourceGraphic"/></filter><filter x="-4%" y="-3.3%" width="108%" height="106.7%" filterUnits="objectBoundingBox" id="e"><feGaussianBlur stdDeviation="5" in="SourceAlpha" result="shadowBlurInner1"/><feOffset dx="3" dy="-4" in="shadowBlurInner1" result="shadowOffsetInner1"/><feComposite in="shadowOffsetInner1" in2="SourceAlpha" operator="arithmetic" k2="-1" k3="1" result="shadowInnerInner1"/><feColorMatrix values="0 0 0 0 1 0 0 0 0 1 0 0 0 0 1 0 0 0 0.25 0" in="shadowInnerInner1"/></filter><filter x="-1.4%" y="-3.5%" width="105.4%" height="107%" filterUnits="objectBoundingBox" id="h"><feGaussianBlur stdDeviation="5" in="SourceAlpha" result="shadowBlurInner1"/><feOffset dx="4" dy="1" in="shadowBlurInner1" result="shadowOffsetInner1"/><feComposite in="shadowOffsetInner1" in2="SourceAlpha" operator="arithmetic" k2="-1" k3="1" result="shadowInnerInner1"/><feColorMatrix values="0 0 0 0 1 0 0 0 0 1 0 0 0 0 1 0 0 0 0.5 0" in="shadowInnerInner1"/></filter><filter x="-45.3%" y="-30.1%" width="190.6%" height="160.2%" filterUnits="objectBoundingBox" id="j"><feGaussianBlur stdDeviation="10" in="SourceGraphic"/></filter><filter x="-31.7%" y="-32.3%" width="163.4%" height="164.6%" filterUnits="objectBoundingBox" id="l"><feGaussianBlur stdDeviation="5.5" in="SourceAlpha" result="shadowBlurInner1"/><feOffset dx="2" dy="2" in="shadowBlurInner1" result="shadowOffsetInner1"/><feComposite in="shadowOffsetInner1" in2="SourceAlpha" operator="arithmetic" k2="-1" k3="1" result="shadowInnerInner1"/><feColorMatrix values="0 0 0 0 1 0 0 0 0 1 0 0 0 0 1 0 0 0 0.15 0" in="shadowInnerInner1" result="shadowMatrixInner1"/><feGaussianBlur stdDeviation="5.5" in="SourceAlpha" result="shadowBlurInner2"/><feOffset dy="7" in="shadowBlurInner2" result="shadowOffsetInner2"/><feComposite in="shadowOffsetInner2" in2="SourceAlpha" operator="arithmetic" k2="-1" k3="1" result="shadowInnerInner2"/><feColorMatrix values="0 0 0 0 0.146989329 0 0 0 0 1 0 0 0 0 0.668017469 0 0 0 1 0" in="shadowInnerInner2" result="shadowMatrixInner2"/><feGaussianBlur stdDeviation="3" in="SourceAlpha" result="shadowBlurInner3"/><feOffset dy="-15" in="shadowBlurInner3" result="shadowOffsetInner3"/><feComposite in="shadowOffsetInner3" in2="SourceAlpha" operator="arithmetic" k2="-1" k3="1" result="shadowInnerInner3"/><feColorMatrix values="0 0 0 0 0 0 0 0 0 0 0 0 0 0 0 0 0 0 0.1 0" in="shadowInnerInner3" result="shadowMatrixInner3"/><feMerge><feMergeNode in="shadowMatrixInner1"/><feMergeNode in="shadowMatrixInner2"/><feMergeNode in="shadowMatrixInner3"/></feMerge></filter><filter x="-31.7%" y="-31.6%" width="163.4%" height="163.3%" filterUnits="objectBoundingBox" id="n"><feGaussianBlur stdDeviation="5.5" in="SourceAlpha" result="shadowBlurInner1"/><feOffset dx="2" dy="2" in="shadowBlurInner1" result="shadowOffsetInner1"/><feComposite in="shadowOffsetInner1" in2="SourceAlpha" operator="arithmetic" k2="-1" k3="1" result="shadowInnerInner1"/><feColorMatrix values="0 0 0 0 1 0 0 0 0 1 0 0 0 0 1 0 0 0 0.15 0" in="shadowInnerInner1" result="shadowMatrixInner1"/><feGaussianBlur stdDeviation="5.5" in="SourceAlpha" result="shadowBlurInner2"/><feOffset dy="7" in="shadowBlurInner2" result="shadowOffsetInner2"/><feComposite in="shadowOffsetInner2" in2="SourceAlpha" operator="arithmetic" k2="-1" k3="1" result="shadowInnerInner2"/><feColorMatrix values="0 0 0 0 0.805270853 0 0 0 0 0.653563262 0 0 0 0 1 0 0 0 1 0" in="shadowInnerInner2" result="shadowMatrixInner2"/><feGaussianBlur stdDeviation="3" in="SourceAlpha" result="shadowBlurInner3"/><feOffset dy="-15" in="shadowBlurInner3" result="shadowOffsetInner3"/><feComposite in="shadowOffsetInner3" in2="SourceAlpha" operator="arithmetic" k2="-1" k3="1" result="shadowInnerInner3"/><feColorMatrix values="0 0 0 0 0 0 0 0 0 0 0 0 0 0 0 0 0 0 0.1 0" in="shadowInnerInner3" result="shadowMatrixInner3"/><feMerge><feMergeNode in="shadowMatrixInner1"/><feMergeNode in="shadowMatrixInner2"/><feMergeNode in="shadowMatrixInner3"/></feMerge></filter><filter x="-31.7%" y="-31.3%" width="163.4%" height="162.6%" filterUnits="objectBoundingBox" id="p"><feGaussianBlur stdDeviation="5.5" in="SourceAlpha" result="shadowBlurInner1"/><feOffset dx="2" dy="2" in="shadowBlurInner1" result="shadowOffsetInner1"/><feComposite in="shadowOffsetInner1" in2="SourceAlpha" operator="arithmetic" k2="-1" k3="1" result="shadowInnerInner1"/><feColorMatrix values="0 0 0 0 1 0 0 0 0 1 0 0 0 0 1 0 0 0 0.15 0" in="shadowInnerInner1" result="shadowMatrixInner1"/><feGaussianBlur stdDeviation="5.5" in="SourceAlpha" result="shadowBlurInner2"/><feOffset dy="7" in="shadowBlurInner2" result="shadowOffsetInner2"/><feComposite in="shadowOffsetInner2" in2="SourceAlpha" operator="arithmetic" k2="-1" k3="1" result="shadowInnerInner2"/><feColorMatrix values="0 0 0 0 1 0 0 0 0 0.673554396 0 0 0 0 0.579973323 0 0 0 1 0" in="shadowInnerInner2" result="shadowMatrixInner2"/><feGaussianBlur stdDeviation="3" in="SourceAlpha" result="shadowBlurInner3"/><feOffset dy="-15" in="shadowBlurInner3" result="shadowOffsetInner3"/><feComposite in="shadowOffsetInner3" in2="SourceAlpha" operator="arithmetic" k2="-1" k3="1" result="shadowInnerInner3"/><feColorMatrix values="0 0 0 0 0 0 0 0 0 0 0 0 0 0 0 0 0 0 0.1 0" in="shadowInnerInner3" result="shadowMatrixInner3"/><feMerge><feMergeNode in="shadowMatrixInner1"/><feMergeNode in="shadowMatrixInner2"/><feMergeNode in="shadowMatrixInner3"/></feMerge></filter><filter x="-31.7%" y="-30.6%" width="163.4%" height="161.3%" filterUnits="objectBoundingBox" id="r"><feGaussianBlur stdDeviation="5.5" in="SourceAlpha" result="shadowBlurInner1"/><feOffset dy="7" in="shadowBlurInner1" result="shadowOffsetInner1"/><feComposite in="shadowOffsetInner1" in2="SourceAlpha" operator="arithmetic" k2="-1" k3="1" result="shadowInnerInner1"/><feColorMatrix values="0 0 0 0 1 0 0 0 0 0.734579007 0 0 0 0 0.705773628 0 0 0 1 0" in="shadowInnerInner1" result="shadowMatrixInner1"/><feGaussianBlur stdDeviation="3" in="SourceAlpha" result="shadowBlurInner2"/><feOffset dy="-15" in="shadowBlurInner2" result="shadowOffsetInner2"/><feComposite in="shadowOffsetInner2" in2="SourceAlpha" operator="arithmetic" k2="-1" k3="1" result="shadowInnerInner2"/><feColorMatrix values="0 0 0 0 0 0 0 0 0 0 0 0 0 0 0 0 0 0 0.1 0" in="shadowInnerInner2" result="shadowMatrixInner2"/><feMerge><feMergeNode in="shadowMatrixInner1"/><feMergeNode in="shadowMatrixInner2"/></feMerge></filter><filter x="-31.7%" y="-31%" width="163.4%" height="162%" filterUnits="objectBoundingBox" id="t"><feGaussianBlur stdDeviation="5.5" in="SourceAlpha" result="shadowBlurInner1"/><feOffset dx="2" dy="2" in="shadowBlurInner1" result="shadowOffsetInner1"/><feComposite in="shadowOffsetInner1" in2="SourceAlpha" operator="arithmetic" k2="-1" k3="1" result="shadowInnerInner1"/><feColorMatrix values="0 0 0 0 1 0 0 0 0 1 0 0 0 0 1 0 0 0 0.15 0" in="shadowInnerInner1" result="shadowMatrixInner1"/><feGaussianBlur stdDeviation="5.5" in="SourceAlpha" result="shadowBlurInner2"/><feOffset dy="7" in="shadowBlurInner2" result="shadowOffsetInner2"/><feComposite in="shadowOffsetInner2" in2="SourceAlpha" operator="arithmetic" k2="-1" k3="1" result="shadowInnerInner2"/><feColorMatrix values="0 0 0 0 0.543730945 0 0 0 0 0.866302556 0 0 0 0 1 0 0 0 1 0" in="shadowInnerInner2" result="shadowMatrixInner2"/><feGaussianBlur stdDeviation="3" in="SourceAlpha" result="shadowBlurInner3"/><feOffset dy="-15" in="shadowBlurInner3" result="shadowOffsetInner3"/><feComposite in="shadowOffsetInner3" in2="SourceAlpha" operator="arithmetic" k2="-1" k3="1" result="shadowInnerInner3"/><feColorMatrix values="0 0 0 0 0 0 0 0 0 0 0 0 0 0 0 0 0 0 0.1 0" in="shadowInnerInner3" result="shadowMatrixInner3"/><feMerge><feMergeNode in="shadowMatrixInner1"/><feMergeNode in="shadowMatrixInner2"/><feMergeNode in="shadowMatrixInner3"/></feMerge></filter><path d="M10 10L175 0l10 10v112.5c0 48.325-39.175 87.5-87.5 87.5S10 170.825 10 122.5V10z" id="d"/><path d="M10 10L175 0v112.5c0 48.325-39.175 87.5-87.5 87.5-45.848 0-83.016-37.167-83.016-83.016 0-1.455.038-2.91.115-4.363L10 10z" id="g"/><path d="M72.552 140.573c9.141.587 16.551-6.364 16.551-15.526v-16.59l-16.551-.355C63.41 107.906 56 114.858 56 123.628c0 8.771 7.41 16.357 16.552 16.945z" id="k"/><path d="M56 91.867c0-8.77 7.41-16.04 16.552-16.235l16.551-.355v33.18l-16.551-.355C63.41 107.907 56 100.637 56 91.867z" id="m"/><path d="M56 60.105c0-8.77 7.41-16.357 16.552-16.944l16.551-1.064v33.18l-16.551.355C63.41 75.827 56 68.876 56 60.105z" id="o"/><path d="M89.103 42.097l16.552-1.064c9.142-.587 16.552 6.682 16.552 16.236s-7.41 17.458-16.552 17.653l-16.552.355v-33.18z" id="q"/><path d="M122.207 91.867c0 9.554-7.41 17.14-16.552 16.945-9.141-.196-16.552-7.783-16.552-16.945 0-9.163 7.41-16.749 16.552-16.945 9.142-.195 16.552 7.39 16.552 16.945z" id="s"/><linearGradient x1="88.536%" y1="0%" x2="11.464%" y2="100%" id="a"><stop stop-color="#959595" offset="0%"/><stop stop-color="#606060" offset="52.391%"/><stop stop-color="#0B0B0B" offset="100%"/></linearGradient><linearGradient x1="84.722%" y1="0%" x2="15.278%" y2="100%" id="c"><stop stop-color="#959595" offset="0%"/><stop stop-color="#606060" offset="52.391%"/><stop stop-color="#0B0B0B" offset="100%"/></linearGradient><linearGradient x1="88.281%" y1="0%" x2="11.719%" y2="100%" id="f"><stop stop-color="#959595" offset="0%"/><stop stop-color="#606060" offset="52.391%"/><stop stop-color="#0B0B0B" offset="100%"/></linearGradient><linearGradient x1="72.09%" y1="0%" x2="27.91%" y2="100%" id="i"><stop stop-color="#595959" offset="0%"/><stop stop-color="#505050" offset="52.391%"/><stop stop-color="#0B0B0B" offset="100%"/></linearGradient></defs><g fill="none" fill-rule="evenodd"><path d="M39.629 88.6L182 80v96.5c0 41.697-33.803 75.5-75.5 75.5-39.554 0-71.618-32.065-71.618-71.618 0-1.26.033-2.52.1-3.777L39.628 88.6z" fill="url(#a)" opacity=".5" filter="url(#b)" transform="translate(56 11)"/><g transform="translate(56 11)"><use fill="url(#c)" xlink:href="#d"/><use fill-opacity=".09" fill="#000" xlink:href="#d"/><use fill="#000" filter="url(#e)" xlink:href="#d"/></g><g transform="translate(56 11)"><use fill="url(#f)" xlink:href="#g"/><use fill="#000" filter="url(#h)" xlink:href="#g"/></g><path d="M135.207 104.867c0 9.554-7.41 17.14-16.552 16.945-9.141-.196-16.552-7.783-16.552-16.945 0-9.163 7.41-16.749 16.552-16.945 9.142-.195 16.552 7.39 16.552 16.945zm-33.104 33.18c0 9.162-7.41 16.113-16.551 15.526C76.41 152.985 69 145.399 69 136.628c0-8.77 7.41-15.722 16.552-15.526C76.41 120.907 69 113.637 69 104.867s7.41-16.04 16.552-16.235C76.41 88.827 69 81.876 69 73.105c0-8.77 7.41-16.357 16.552-16.944l16.551-1.064 16.552-1.064c9.142-.587 16.552 6.682 16.552 16.236s-7.41 17.458-16.552 17.653l-16.552.355z" fill="url(#i)" filter="url(#j)" transform="translate(56 11)"/><g transform="translate(56 11)"><use fill="#0ACF83" xlink:href="#k"/><use fill="#000" filter="url(#l)" xlink:href="#k"/></g><g transform="translate(56 11)"><use fill="#A259FF" xlink:href="#m"/><use fill="#000" filter="url(#n)" xlink:href="#m"/></g><g transform="translate(56 11)"><use fill="#F24E1E" xlink:href="#o"/><use fill="#000" filter="url(#p)" xlink:href="#o"/></g><g transform="translate(56 11)"><use fill="#FF7262" xlink:href="#q"/><use fill="#000" filter="url(#r)" xlink:href="#q"/></g><g transform="translate(56 11)"><use fill="#1ABCFE" xlink:href="#s"/><use fill="#000" filter="url(#t)" xlink:href="#s"/></g></g></svg>