<svg width="82.25" height="88.5" viewBox="0 0 329 354" xmlns="http://www.w3.org/2000/svg" xmlns:xlink="http://www.w3.org/1999/xlink"><defs><filter x="-57.2%" y="-52.5%" width="217%" height="205%" filterUnits="objectBoundingBox" id="b"><feGaussianBlur stdDeviation="30.1" in="SourceGraphic"/></filter><filter x="-4%" y="-3.3%" width="108%" height="106.7%" filterUnits="objectBoundingBox" id="e"><feGaussianBlur stdDeviation="5" in="SourceAlpha" result="shadowBlurInner1"/><feOffset dx="3" dy="-4" in="shadowBlurInner1" result="shadowOffsetInner1"/><feComposite in="shadowOffsetInner1" in2="SourceAlpha" operator="arithmetic" k2="-1" k3="1" result="shadowInnerInner1"/><feColorMatrix values="0 0 0 0 1 0 0 0 0 1 0 0 0 0 1 0 0 0 0.25 0" in="shadowInnerInner1"/></filter><filter x="-1.4%" y="-3.5%" width="105.4%" height="107%" filterUnits="objectBoundingBox" id="h"><feGaussianBlur stdDeviation="5" in="SourceAlpha" result="shadowBlurInner1"/><feOffset dx="4" dy="1" in="shadowBlurInner1" result="shadowOffsetInner1"/><feComposite in="shadowOffsetInner1" in2="SourceAlpha" operator="arithmetic" k2="-1" k3="1" result="shadowInnerInner1"/><feColorMatrix values="0 0 0 0 1 0 0 0 0 1 0 0 0 0 1 0 0 0 0.5 0" in="shadowInnerInner1"/></filter><filter x="-38.7%" y="-27.2%" width="177.3%" height="154.4%" filterUnits="objectBoundingBox" id="j"><feGaussianBlur stdDeviation="10" in="SourceGraphic"/></filter><filter x="-11%" y="-7.7%" width="121.9%" height="115.4%" filterUnits="objectBoundingBox" id="l"><feGaussianBlur stdDeviation="5.5" in="SourceAlpha" result="shadowBlurInner1"/><feOffset dy="6" in="shadowBlurInner1" result="shadowOffsetInner1"/><feComposite in="shadowOffsetInner1" in2="SourceAlpha" operator="arithmetic" k2="-1" k3="1" result="shadowInnerInner1"/><feColorMatrix values="0 0 0 0 1 0 0 0 0 1 0 0 0 0 1 0 0 0 0.5 0" in="shadowInnerInner1" result="shadowMatrixInner1"/><feGaussianBlur stdDeviation="3" in="SourceAlpha" result="shadowBlurInner2"/><feOffset dy="-6" in="shadowBlurInner2" result="shadowOffsetInner2"/><feComposite in="shadowOffsetInner2" in2="SourceAlpha" operator="arithmetic" k2="-1" k3="1" result="shadowInnerInner2"/><feColorMatrix values="0 0 0 0 0.992156863 0 0 0 0 0.603921569 0 0 0 0 0 0 0 0 0.3 0" in="shadowInnerInner2" result="shadowMatrixInner2"/><feMerge><feMergeNode in="shadowMatrixInner1"/><feMergeNode in="shadowMatrixInner2"/></feMerge></filter><linearGradient x1="88.536%" y1="0%" x2="11.464%" y2="100%" id="a"><stop stop-color="#FFD200" offset="0%"/><stop stop-color="#FD9A00" offset="52.391%"/><stop stop-color="#F6512C" offset="100%"/></linearGradient><linearGradient x1="84.722%" y1="0%" x2="15.278%" y2="100%" id="c"><stop stop-color="#FFD200" offset="0%"/><stop stop-color="#FD9A00" offset="52.391%"/><stop stop-color="#F6512C" offset="100%"/></linearGradient><linearGradient x1="88.281%" y1="0%" x2="11.719%" y2="100%" id="f"><stop stop-color="#FFD200" offset="0%"/><stop stop-color="#FD9A00" offset="52.391%"/><stop stop-color="#F6512C" offset="100%"/></linearGradient><linearGradient x1="72.331%" y1="4.819%" x2="25.452%" y2="99.667%" id="i"><stop stop-color="#F80" offset="0%"/><stop stop-color="#EA3F00" offset="100%"/></linearGradient><path d="M10 10L175 0l10 10v112.5c0 48.325-39.175 87.5-87.5 87.5S10 170.825 10 122.5V10z" id="d"/><path d="M10 10L175 0v112.5c0 48.325-39.175 87.5-87.5 87.5-45.848 0-83.016-37.167-83.016-83.016 0-1.455.038-2.91.115-4.363L10 10z" id="g"/><path id="k" d="M125.707 61l.895-20L49 47.91l.526 53.425 57.568.325-2.024 25.06-19.172 4.857-18.85-6.467-.617-14.56-16.643-.333.32 28.18 35.398 12.953.398.03.002-.106 35.52-8.342 3.43-61.342-59.23 1.45-.473-18.616z"/></defs><g fill="none" fill-rule="evenodd"><path d="M39.629 88.6L182 80v96.5c0 41.697-33.803 75.5-75.5 75.5-39.554 0-71.618-32.065-71.618-71.618 0-1.26.033-2.52.1-3.777L39.628 88.6z" fill="url(#a)" opacity=".5" filter="url(#b)" transform="translate(56 11)"/><g transform="translate(56 11)"><use fill="url(#c)" xlink:href="#d"/><use fill-opacity=".09" fill="#000" xlink:href="#d"/><use fill="#000" filter="url(#e)" xlink:href="#d"/></g><g transform="translate(56 11)"><use fill="url(#f)" xlink:href="#g"/><use fill="#000" filter="url(#h)" xlink:href="#g"/></g><path fill="url(#i)" filter="url(#j)" d="M138.707 74l.895-20L62 60.91l.526 53.425 57.568.325-2.024 25.06-19.172 4.857-18.85-6.467-.617-14.56-16.643-.333.32 28.18 35.398 12.953.398.03.002-.106 35.52-8.342 3.43-61.342-59.23 1.45-.473-18.616z" transform="translate(56 11)"/><g transform="translate(56 11)"><use fill="#FFF" xlink:href="#k"/><use fill="#000" filter="url(#l)" xlink:href="#k"/></g></g></svg>