<svg width="164.5" height="177" viewBox="0 0 329 354" xmlns="http://www.w3.org/2000/svg" xmlns:xlink="http://www.w3.org/1999/xlink"><defs><linearGradient x1="88.536%" y1="0%" x2="11.464%" y2="100%" id="a"><stop stop-color="#FFB900" offset="0%"/><stop stop-color="#FF7A7F" offset="52.391%"/><stop stop-color="#E63B3B" offset="100%"/></linearGradient><linearGradient x1="84.722%" y1="0%" x2="15.278%" y2="100%" id="c"><stop stop-color="#FFB900" offset="0%"/><stop stop-color="#FF7A7F" offset="52.391%"/><stop stop-color="#E63B3B" offset="100%"/></linearGradient><linearGradient x1="88.281%" y1="0%" x2="11.719%" y2="100%" id="f"><stop stop-color="#FFB900" offset="0%"/><stop stop-color="#FF7A7F" offset="52.391%"/><stop stop-color="#E63B3B" offset="100%"/></linearGradient><linearGradient x1="63.557%" y1="0%" x2="36.443%" y2="100%" id="i"><stop stop-color="#D69C00" offset="0%"/><stop stop-color="#FF3F47" offset="52.391%"/><stop stop-color="#B30101" offset="100%"/></linearGradient><filter x="-57.2%" y="-52.5%" width="217%" height="205%" filterUnits="objectBoundingBox" id="b"><feGaussianBlur stdDeviation="30.1" in="SourceGraphic"/></filter><filter x="-4%" y="-3.3%" width="108%" height="106.7%" filterUnits="objectBoundingBox" id="e"><feGaussianBlur stdDeviation="5" in="SourceAlpha" result="shadowBlurInner1"/><feOffset dx="3" dy="-4" in="shadowBlurInner1" result="shadowOffsetInner1"/><feComposite in="shadowOffsetInner1" in2="SourceAlpha" operator="arithmetic" k2="-1" k3="1" result="shadowInnerInner1"/><feColorMatrix values="0 0 0 0 1 0 0 0 0 1 0 0 0 0 1 0 0 0 0.25 0" in="shadowInnerInner1"/></filter><filter x="-1.4%" y="-3.5%" width="105.4%" height="107%" filterUnits="objectBoundingBox" id="h"><feGaussianBlur stdDeviation="5" in="SourceAlpha" result="shadowBlurInner1"/><feOffset dx="4" dy="1" in="shadowBlurInner1" result="shadowOffsetInner1"/><feComposite in="shadowOffsetInner1" in2="SourceAlpha" operator="arithmetic" k2="-1" k3="1" result="shadowInnerInner1"/><feColorMatrix values="0 0 0 0 1 0 0 0 0 1 0 0 0 0 1 0 0 0 0.5 0" in="shadowInnerInner1"/></filter><filter x="-48.2%" y="-25.1%" width="196.5%" height="150.2%" filterUnits="objectBoundingBox" id="j"><feGaussianBlur stdDeviation="10" in="SourceGraphic"/></filter><path d="M10 10L175 0l10 10v112.5c0 48.325-39.175 87.5-87.5 87.5S10 170.825 10 122.5V10z" id="d"/><path d="M10 10L175 0v112.5c0 48.325-39.175 87.5-87.5 87.5-45.848 0-83.016-37.167-83.016-83.016 0-1.455.038-2.91.115-4.363L10 10z" id="g"/></defs><g fill="none" fill-rule="evenodd"><path d="M39.629 88.6L182 80v96.5c0 41.697-33.803 75.5-75.5 75.5-39.554 0-71.618-32.065-71.618-71.618 0-1.26.033-2.52.1-3.777L39.628 88.6z" fill="url(#a)" opacity=".5" filter="url(#b)" transform="translate(56 11)"/><g transform="translate(56 11)"><use fill="url(#c)" xlink:href="#d"/><use fill-opacity=".09" fill="#000" xlink:href="#d"/><use fill="#000" filter="url(#e)" xlink:href="#d"/></g><g transform="translate(56 11)"><use fill="url(#f)" xlink:href="#g"/><use fill="#000" filter="url(#h)" xlink:href="#g"/></g><path d="M78.402 131.515v21.117c0 4.167-.332 5.852-1.429 7.493-1.092 1.599-2.862 2.865-4.797 3.578l-1.894-2.233c1.473-.757 2.735-1.977 3.323-3.114.488-.975.7-2.218.716-5.09v-21.75h4.08zm10.879 6.328c4.709 0 6.664 2.26 6.664 5.688v13.408h-3.013l-.3-2.035c-1.655 1.433-3.427 2.412-5.799 2.412-3.69 0-5.65-1.883-5.65-5.196 0-3.846 2.974-6.403 9.566-6.403h1.356v-1.694c0-2.261-1.167-3.353-3.881-3.353-1.958 0-3.954.525-5.496 1.092l-.564-2.374c1.959-.865 4.368-1.545 7.117-1.545zm35.02 0c4.705 0 6.666 2.26 6.666 5.688v13.408h-3.013l-.303-2.035c-1.659 1.433-3.428 2.412-5.8 2.412-3.69 0-5.648-1.883-5.648-5.196 0-3.846 2.973-6.403 9.567-6.403h1.356v-1.694c0-2.261-1.17-3.353-3.88-3.353-1.958 0-3.956.525-5.5 1.092l-.564-2.374c1.959-.865 4.368-1.545 7.119-1.545zm-21.913.344l3.577 11.523.795 3.461c1.806-5.007 3.086-10.091 3.726-14.983h4.067c-1.088 6.172-3.05 12.95-5.797 18.75h-4.787l-5.763-18.751h4.182zm-10.283 9.975h-1.616c-4.374 0-5.465 1.433-5.465 3.39 0 1.809 1.02 2.938 2.9 2.938 1.32 0 2.791-.678 4.18-1.883v-4.445zm35.02 0h-1.62c-4.369 0-5.463 1.433-5.463 3.39 0 1.809 1.019 2.938 2.9 2.938 1.317 0 2.788-.678 4.184-1.883h-.001v-4.445zm5.333-29.723c-.536 6.978-23.188 8.446-37.935 7.503-9.693-.623-11.58-2.185-11.58-2.185 9.208 1.52 24.737 1.795 37.326-.574 10.608-1.996 12.063-4.484 12.18-4.725l.007-.014a.14.14 0 00.002-.005zm-56.299 2.042c-11.987-1.946 5.769-8.729 9.018-6.44 0 0-1.027-.071-2.824.318-1.723.37-7.202 2.134-4.282 3.406 8.129 3.537 37.394 2.691 46.647-.112 4.258-1.291 3.017-2.915 2.64-3.3l-.04-.041a1.008 1.008 0 00-.05-.044c8.479 3.826-18.42 11.511-51.109 6.213zm15.347-12.846s-3.128 1.82 2.23 2.435c6.489.741 9.806.635 16.956-.717 0 0 1.885 1.178 4.51 2.2-16.034 6.869-36.29-.399-23.696-3.918zm-1.961-8.966s-3.509 2.599 1.852 3.153c6.933.715 12.407.774 21.885-1.05 0 0 1.308 1.329 3.368 2.054-19.383 5.67-40.973.446-27.105-4.157zm29.863 6.038s.235-.214.306-.405c15.367-7.983 8.261-15.655 3.302-14.622-1.212.253-1.757.472-1.757.472s.452-.708 1.312-1.012c9.812-3.448 17.356 10.172-3.163 15.567zM93.01 89.378s-1.72.409-3.614.999l-.335.106c-.169.054-.338.11-.506.165l-.337.115c-3.295 1.136-6.15 2.678-.478 3.437 4.06.543 12.15.418 19.691-.214l.66-.058.659-.061a157.126 157.126 0 0011.002-1.5l.023-.004s-2.17.931-3.743 2.004c-15.118 3.976-44.317 2.123-35.91-1.941 7.107-3.44 12.888-3.048 12.888-3.048zm27.698-28.35c-17.86 10.358-14.562 13.36-10.259 19.407 4.607 6.487-5.424 11.665-5.424 11.665s4.99-4.091 1.036-8.642c-13.39-15.43 14.648-22.43 14.647-22.43zm-10.258-16.73s8.51 8.513-8.072 21.602c-13.297 10.502-3.032 16.489-.006 23.331-7.762-7.003-13.455-13.17-9.636-18.906 1.57-2.358 3.92-4.376 6.412-6.356l.537-.424c.537-.424 1.08-.846 1.62-1.272l.54-.425.538-.428c5.357-4.294 10.127-9.01 8.067-17.122z" fill="url(#i)" filter="url(#j)" transform="translate(56 11)"/><path d="M121.402 129.515v21.117c0 4.167-.332 5.852-1.429 7.493-1.092 1.599-2.862 2.865-4.797 3.578l-1.894-2.233c1.473-.757 2.735-1.977 3.323-3.114.488-.975.7-2.218.716-5.09v-21.75h4.08zm10.879 6.328c4.709 0 6.664 2.26 6.664 5.688v13.408h-3.013l-.3-2.035c-1.655 1.433-3.427 2.412-5.799 2.412-3.69 0-5.65-1.883-5.65-5.196 0-3.846 2.974-6.403 9.566-6.403h1.356v-1.694c0-2.261-1.167-3.353-3.881-3.353-1.958 0-3.954.525-5.496 1.092l-.564-2.374c1.959-.865 4.368-1.545 7.117-1.545zm35.02 0c4.705 0 6.666 2.26 6.666 5.688v13.408h-3.013l-.303-2.035c-1.659 1.433-3.428 2.412-5.8 2.412-3.69 0-5.648-1.883-5.648-5.196 0-3.846 2.973-6.403 9.567-6.403h1.356v-1.694c0-2.261-1.17-3.353-3.88-3.353-1.958 0-3.956.525-5.5 1.092l-.564-2.374c1.959-.865 4.368-1.545 7.119-1.545zm-21.913.344l3.577 11.523.795 3.461c1.806-5.007 3.086-10.091 3.726-14.983h4.067c-1.088 6.172-3.05 12.95-5.797 18.75h-4.787l-5.763-18.751h4.182zm-10.283 9.975h-1.616c-4.374 0-5.465 1.433-5.465 3.39 0 1.809 1.02 2.938 2.9 2.938 1.32 0 2.791-.678 4.18-1.883v-4.445zm35.02 0h-1.62c-4.369 0-5.463 1.433-5.463 3.39 0 1.809 1.019 2.938 2.9 2.938 1.317 0 2.788-.678 4.184-1.883h-.001v-4.445zm5.333-29.723c-.536 6.978-23.188 8.446-37.935 7.503-9.693-.623-11.58-2.185-11.58-2.185 9.208 1.52 24.737 1.795 37.326-.574 10.608-1.996 12.063-4.484 12.18-4.725l.007-.014.002-.005zm-56.299 2.042c-11.987-1.946 5.769-8.729 9.018-6.44 0 0-1.027-.071-2.824.318-1.723.37-7.202 2.134-4.282 3.406 8.129 3.537 37.394 2.691 46.647-.112 4.258-1.291 3.017-2.915 2.64-3.3l-.04-.041a1.008 1.008 0 00-.05-.044c8.479 3.826-18.42 11.511-51.109 6.213zm15.347-12.846s-3.128 1.82 2.23 2.435c6.489.741 9.806.635 16.956-.717 0 0 1.885 1.178 4.51 2.2-16.034 6.869-36.29-.399-23.696-3.918zm-1.961-8.966s-3.509 2.599 1.852 3.153c6.933.715 12.407.774 21.885-1.05 0 0 1.308 1.329 3.368 2.054-19.383 5.67-40.973.446-27.105-4.157zm29.863 6.038s.235-.214.306-.405c15.367-7.983 8.261-15.655 3.302-14.622-1.212.253-1.757.472-1.757.472s.452-.708 1.312-1.012c9.812-3.448 17.356 10.172-3.163 15.567zM136.01 87.378s-1.72.409-3.614.999l-.335.106c-.169.054-.338.11-.506.165l-.337.115c-3.295 1.136-6.15 2.678-.478 3.437 4.06.543 12.15.418 19.691-.214l.66-.058.659-.061a157.126 157.126 0 0011.002-1.5l.023-.004s-2.17.931-3.743 2.004c-15.118 3.976-44.317 2.123-35.91-1.941 7.107-3.44 12.888-3.048 12.888-3.048zm27.698-28.35c-17.86 10.358-14.562 13.36-10.259 19.407 4.607 6.487-5.424 11.665-5.424 11.665s4.99-4.091 1.036-8.642c-13.39-15.43 14.648-22.43 14.647-22.43zm-10.258-16.73s8.51 8.513-8.072 21.602c-13.297 10.502-3.032 16.489-.006 23.331-7.762-7.003-13.455-13.17-9.636-18.906 1.57-2.358 3.92-4.376 6.412-6.356l.537-.424c.537-.424 1.08-.846 1.62-1.272l.54-.425.538-.428c5.357-4.294 10.127-9.01 8.067-17.122z" fill="#FFF"/></g></svg>