<svg width="164.5" height="177" viewBox="0 0 329 354" xmlns="http://www.w3.org/2000/svg" xmlns:xlink="http://www.w3.org/1999/xlink"><defs><linearGradient x1="88.536%" y1="0%" x2="11.464%" y2="100%" id="b"><stop stop-color="#FFD200" offset="0%"/><stop stop-color="#FD9A00" offset="52.391%"/><stop stop-color="#F6512C" offset="100%"/></linearGradient><linearGradient x1="88.536%" y1="0%" x2="11.464%" y2="100%" id="d"><stop stop-color="#FFD200" offset="0%"/><stop stop-color="#FD9A00" offset="100%"/></linearGradient><linearGradient x1="84.722%" y1="0%" x2="15.278%" y2="100%" id="e"><stop stop-color="#FFD200" offset="0%"/><stop stop-color="#FD9A00" offset="100%"/></linearGradient><linearGradient x1="88.281%" y1="0%" x2="11.719%" y2="100%" id="h"><stop stop-color="#FFD200" offset="0%"/><stop stop-color="#FD9A00" offset="100%"/></linearGradient><linearGradient x1="100%" y1="20.802%" x2="0%" y2="79.198%" id="k"><stop stop-color="#FFA400" offset="0%"/><stop stop-color="#E74D00" offset="100%"/></linearGradient><filter x="-57.2%" y="-52.5%" width="217%" height="205%" filterUnits="objectBoundingBox" id="a"><feGaussianBlur stdDeviation="30.1" in="SourceGraphic"/></filter><filter x="-4%" y="-3.3%" width="108%" height="106.7%" filterUnits="objectBoundingBox" id="g"><feGaussianBlur stdDeviation="5" in="SourceAlpha" result="shadowBlurInner1"/><feOffset dx="3" dy="-4" in="shadowBlurInner1" result="shadowOffsetInner1"/><feComposite in="shadowOffsetInner1" in2="SourceAlpha" operator="arithmetic" k2="-1" k3="1" result="shadowInnerInner1"/><feColorMatrix values="0 0 0 0 1 0 0 0 0 1 0 0 0 0 1 0 0 0 0.25 0" in="shadowInnerInner1"/></filter><filter x="-1.4%" y="-3.5%" width="105.4%" height="107%" filterUnits="objectBoundingBox" id="j"><feGaussianBlur stdDeviation="5" in="SourceAlpha" result="shadowBlurInner1"/><feOffset dx="4" dy="1" in="shadowBlurInner1" result="shadowOffsetInner1"/><feComposite in="shadowOffsetInner1" in2="SourceAlpha" operator="arithmetic" k2="-1" k3="1" result="shadowInnerInner1"/><feColorMatrix values="0 0 0 0 1 0 0 0 0 1 0 0 0 0 1 0 0 0 0.5 0" in="shadowInnerInner1"/></filter><filter x="-26.9%" y="-35.2%" width="153.7%" height="170.3%" filterUnits="objectBoundingBox" id="l"><feGaussianBlur stdDeviation="10" in="SourceGraphic"/></filter><filter x="-7.6%" y="-10%" width="115.2%" height="119.9%" filterUnits="objectBoundingBox" id="n"><feGaussianBlur stdDeviation="5.5" in="SourceAlpha" result="shadowBlurInner1"/><feOffset dy="6" in="shadowBlurInner1" result="shadowOffsetInner1"/><feComposite in="shadowOffsetInner1" in2="SourceAlpha" operator="arithmetic" k2="-1" k3="1" result="shadowInnerInner1"/><feColorMatrix values="0 0 0 0 1 0 0 0 0 1 0 0 0 0 1 0 0 0 0.5 0" in="shadowInnerInner1" result="shadowMatrixInner1"/><feGaussianBlur stdDeviation="3" in="SourceAlpha" result="shadowBlurInner2"/><feOffset dy="-6" in="shadowBlurInner2" result="shadowOffsetInner2"/><feComposite in="shadowOffsetInner2" in2="SourceAlpha" operator="arithmetic" k2="-1" k3="1" result="shadowInnerInner2"/><feColorMatrix values="0 0 0 0 0.992156863 0 0 0 0 0.603921569 0 0 0 0 0 0 0 0 0.3 0" in="shadowInnerInner2" result="shadowMatrixInner2"/><feMerge><feMergeNode in="shadowMatrixInner1"/><feMergeNode in="shadowMatrixInner2"/></feMerge></filter><path d="M39.629 88.6L182 80v96.5c0 41.697-33.803 75.5-75.5 75.5-39.554 0-71.618-32.065-71.618-71.618 0-1.26.033-2.52.1-3.777L39.628 88.6z" id="c"/><path d="M10 10L175 0l10 10v112.5c0 48.325-39.175 87.5-87.5 87.5S10 170.825 10 122.5V10z" id="f"/><path d="M10 10L175 0v112.5c0 48.325-39.175 87.5-87.5 87.5-45.848 0-83.016-37.167-83.016-83.016 0-1.455.038-2.91.115-4.363L10 10z" id="i"/><path d="M56.943 130.45c16.028.98 27.53-8.787 28.1-24.76L86.935 49l-17.196 1.103-2.455 55.186c-.344 6.897-3.361 10.412-8.56 10.212-4.98-.192-7.836-3.616-7.685-9.665l-17.952-.431c-1.175 16.283 9.712 24.18 23.856 25.044zm61.409 3.796c15.179.93 26.222-7.332 26.295-21.106-.072-9.768-5.432-15.618-16.492-18.238l-10.671-2.416c-4.678-1.096-6.16-3.011-6.079-5.465.023-3.244 3.327-5.282 7.385-5.334 4.633-.06 7.837 2.832 8.302 6.954l16.186-.566c-.921-13.21-9.786-20.953-24.612-20.459-14.826.495-24.478 8.147-24.76 20.63-.344 9.566 4.971 15.835 16.088 18.423l9.727 2.374c4.616 1.18 6.715 2.94 6.76 5.833-.104 3.271-3.277 5.308-7.86 5.118-5.094-.211-8.494-2.847-9.174-7.525l-17.651-.069c.928 12.361 10.343 20.854 26.556 21.846z" id="m"/></defs><g fill="none" fill-rule="evenodd"><g opacity=".5" filter="url(#a)" transform="translate(56 11)"><use fill="url(#b)" xlink:href="#c"/><use fill="url(#d)" xlink:href="#c"/></g><g transform="translate(56 11)"><use fill="url(#e)" xlink:href="#f"/><use fill-opacity=".09" fill="#000" xlink:href="#f"/><use fill="#000" filter="url(#g)" xlink:href="#f"/></g><g transform="translate(56 11)"><use fill="url(#h)" xlink:href="#i"/><use fill="#000" filter="url(#j)" xlink:href="#i"/></g><path d="M69.943 143.45c16.028.98 27.53-8.787 28.1-24.76L99.935 62l-17.196 1.103-2.455 55.186c-.344 6.897-3.361 10.412-8.56 10.212-4.98-.192-7.836-3.616-7.685-9.665l-17.952-.431c-1.175 16.283 9.712 24.18 23.856 25.044zm61.409 3.796c15.179.93 26.222-7.332 26.295-21.106-.072-9.768-5.432-15.618-16.492-18.238l-10.671-2.416c-4.678-1.096-6.16-3.011-6.079-5.465.023-3.244 3.327-5.282 7.385-5.334 4.633-.06 7.837 2.832 8.302 6.954l16.186-.566c-.921-13.21-9.786-20.953-24.612-20.459-14.826.495-24.478 8.147-24.76 20.63-.344 9.566 4.971 15.835 16.088 18.423l9.727 2.374c4.616 1.18 6.715 2.94 6.76 5.833-.104 3.271-3.277 5.308-7.86 5.118-5.094-.211-8.494-2.847-9.174-7.525l-17.651-.069c.928 12.361 10.343 20.854 26.556 21.846z" fill="url(#k)" filter="url(#l)" transform="translate(56 11)"/><g transform="translate(56 11)"><use fill="#FFF" xlink:href="#m"/><use fill="#000" filter="url(#n)" xlink:href="#m"/></g></g></svg>