<svg width="103" height="32" xmlns="http://www.w3.org/2000/svg"><g fill="none" fill-rule="evenodd"><path d="M26.163 0v18.314c0 7.224-5.857 13.081-13.082 13.081C5.98 31.395.2 25.735.005 18.68L0 18.314V0h26.163zm-3.925 3.924h-9.157v23.547c5.058 0 9.157-4.1 9.157-9.157V3.924z" fill="#F6512C"/><path d="M44.94 3.995h-2.475l-2.096 2.872-2.112-2.872H35.78l3.412 4.428-3.516 4.55h2.477l2.216-3.01 2.2 3.01h2.493l-3.533-4.55 3.412-4.428zM48.22 0h-2.062v12.972h2.061V7.783c0-1.418.814-2.23 2.113-2.23 1.23 0 1.784.812 1.784 2.04v5.38h2.06v-5.64c0-2.092-1.16-3.545-3.342-3.545-1.333 0-2.2.57-2.615 1.176V0zm9.685 9.08h6.84l.015-.4.002-.24c0-2.628-1.749-4.652-4.416-4.652-2.666 0-4.467 2.075-4.467 4.687 0 2.681 1.766 4.705 4.485 4.705 2.095 0 3.688-1.263 4.225-3.044h-2.078c-.329.795-1.143 1.28-2.095 1.28-1.438 0-2.355-.917-2.511-2.335zm2.441-3.614c1.334 0 2.2.847 2.373 2.092h-4.78c.208-1.228 1.074-2.092 2.407-2.092zm12.855.207V3.995h-7.464v1.782h4.867l-4.936 5.517v1.678h7.602v-1.781h-5.022l4.953-5.518zm8.18-1.66v1.28c-.572-.934-1.629-1.488-3.031-1.488-2.65 0-4.157 2.128-4.157 4.687 0 2.56 1.507 4.688 4.157 4.688 1.402 0 2.459-.554 3.03-1.488v1.28h1.905v-8.96H81.38zm-5.127 4.48c0-1.61.97-2.872 2.528-2.872 1.576 0 2.529 1.263 2.529 2.871 0 1.609-.953 2.872-2.529 2.872-1.558 0-2.528-1.263-2.528-2.872zM36.352 23.317c0 2.594 1.835 4.687 4.485 4.687 2.667 0 4.017-1.85 4.26-3.46h-2.113c-.242.97-1.056 1.644-2.165 1.644-1.471 0-2.407-1.193-2.407-2.871 0-1.695.936-2.889 2.407-2.889 1.109 0 1.923.675 2.165 1.643h2.113c-.243-1.608-1.593-3.459-4.26-3.459-2.65 0-4.485 2.093-4.485 4.705zm16.855-4.48v1.28c-.572-.934-1.628-1.487-3.031-1.487-2.65 0-4.156 2.127-4.156 4.687 0 2.56 1.507 4.687 4.156 4.687 1.403 0 2.459-.553 3.03-1.487v1.28h1.905v-8.96h-1.904zm-5.126 4.48c0-1.609.97-2.871 2.528-2.871 1.576 0 2.528 1.262 2.528 2.87 0 1.61-.952 2.872-2.528 2.872-1.559 0-2.528-1.263-2.528-2.871zm15.833-3.321c-.502-.761-1.472-1.384-2.875-1.384-2.65 0-4.156 2.128-4.156 4.705 0 2.56 1.507 4.687 4.156 4.687 1.403 0 2.46-.553 3.03-1.487v1.28h1.906V14.825h-2.061v5.172zm.086 3.32c0 1.61-.952 2.872-2.528 2.872-1.558 0-2.528-1.263-2.528-2.871 0-1.643.97-2.889 2.528-2.889 1.576 0 2.528 1.246 2.528 2.889zm5.79.589h6.84l.016-.518.001-.122c0-2.63-1.749-4.653-4.416-4.653-2.667 0-4.467 2.076-4.467 4.688 0 2.68 1.766 4.704 4.485 4.704 2.095 0 3.688-1.263 4.225-3.044h-2.078c-.33.796-1.143 1.28-2.095 1.28-1.438 0-2.356-.917-2.511-2.335zm2.441-3.615c1.334 0 2.2.847 2.373 2.093h-4.78c.208-1.228 1.074-2.093 2.407-2.093zm13.998 2.352c0-1.453.796-2.266 2.026-2.266 1.247 0 1.697.883 1.697 2.041v5.38h2.06v-5.639c0-2.041-1.108-3.546-3.272-3.546-1.386 0-2.355.554-3.048 1.419-.502-.865-1.403-1.419-2.701-1.419-1.438 0-2.304.692-2.685 1.401V18.82h-1.904v8.977h2.06v-5.224c0-1.366.78-2.197 2.009-2.197 1.23 0 1.697.865 1.697 2.041v5.38h2.06v-5.155zm8.993 8.752l1.524-3.667-3.62-8.907h2.2l2.441 6.503 2.477-6.503h2.147l-5.126 12.574h-2.043z" fill="#000" fill-rule="nonzero"/></g></svg>