<svg width="164.5" height="177" viewBox="0 0 329 354" xmlns="http://www.w3.org/2000/svg" xmlns:xlink="http://www.w3.org/1999/xlink"><defs><filter x="-57.2%" y="-52.5%" width="217%" height="205%" filterUnits="objectBoundingBox" id="b"><feGaussianBlur stdDeviation="30.1" in="SourceGraphic"/></filter><filter x="-4%" y="-3.3%" width="108%" height="106.7%" filterUnits="objectBoundingBox" id="e"><feGaussianBlur stdDeviation="5" in="SourceAlpha" result="shadowBlurInner1"/><feOffset dx="3" dy="-4" in="shadowBlurInner1" result="shadowOffsetInner1"/><feComposite in="shadowOffsetInner1" in2="SourceAlpha" operator="arithmetic" k2="-1" k3="1" result="shadowInnerInner1"/><feColorMatrix values="0 0 0 0 1 0 0 0 0 1 0 0 0 0 1 0 0 0 0.25 0" in="shadowInnerInner1"/></filter><filter x="2.6%" y="0%" width="97.4%" height="100%" filterUnits="objectBoundingBox" id="f"><feGaussianBlur in="SourceGraphic"/></filter><filter x="-1.4%" y="-3.5%" width="105.4%" height="107%" filterUnits="objectBoundingBox" id="i"><feGaussianBlur stdDeviation="5" in="SourceAlpha" result="shadowBlurInner1"/><feOffset dx="4" dy="1" in="shadowBlurInner1" result="shadowOffsetInner1"/><feComposite in="shadowOffsetInner1" in2="SourceAlpha" operator="arithmetic" k2="-1" k3="1" result="shadowInnerInner1"/><feColorMatrix values="0 0 0 0 1 0 0 0 0 1 0 0 0 0 1 0 0 0 0.5 0" in="shadowInnerInner1"/></filter><filter x="-24.7%" y="-47.4%" width="149.3%" height="194.7%" filterUnits="objectBoundingBox" id="k"><feGaussianBlur stdDeviation="10" in="SourceGraphic"/></filter><filter x="-7%" y="-13.4%" width="114%" height="126.8%" filterUnits="objectBoundingBox" id="m"><feGaussianBlur stdDeviation="5.5" in="SourceAlpha" result="shadowBlurInner1"/><feOffset dy="6" in="shadowBlurInner1" result="shadowOffsetInner1"/><feComposite in="shadowOffsetInner1" in2="SourceAlpha" operator="arithmetic" k2="-1" k3="1" result="shadowInnerInner1"/><feColorMatrix values="0 0 0 0 1 0 0 0 0 1 0 0 0 0 1 0 0 0 0.5 0" in="shadowInnerInner1" result="shadowMatrixInner1"/><feGaussianBlur stdDeviation="3" in="SourceAlpha" result="shadowBlurInner2"/><feOffset dy="-6" in="shadowBlurInner2" result="shadowOffsetInner2"/><feComposite in="shadowOffsetInner2" in2="SourceAlpha" operator="arithmetic" k2="-1" k3="1" result="shadowInnerInner2"/><feColorMatrix values="0 0 0 0 0.933749296 0 0 0 0 0.815301067 0 0 0 0 1 0 0 0 1 0" in="shadowInnerInner2" result="shadowMatrixInner2"/><feMerge><feMergeNode in="shadowMatrixInner1"/><feMergeNode in="shadowMatrixInner2"/></feMerge></filter><linearGradient x1="88.536%" y1="0%" x2="11.464%" y2="100%" id="a"><stop stop-color="#FF884D" offset="0%"/><stop stop-color="#A177FF" offset="100%"/></linearGradient><linearGradient x1="84.722%" y1="0%" x2="15.278%" y2="100%" id="c"><stop stop-color="#FF884D" offset="0%"/><stop stop-color="#A177FF" offset="100%"/></linearGradient><linearGradient x1="88.281%" y1="0%" x2="11.719%" y2="100%" id="g"><stop stop-color="#FF884D" offset="0%"/><stop stop-color="#A177FF" offset="100%"/></linearGradient><linearGradient x1="100%" y1="36.452%" x2="0%" y2="63.548%" id="j"><stop stop-color="#E4540C" offset="0%"/><stop stop-color="#6E2DFF" offset="100%"/></linearGradient><path d="M10 10L175 0l10 10v112.5c0 48.325-39.175 87.5-87.5 87.5S10 170.825 10 122.5V10z" id="d"/><path d="M10 10L175 0v112.5c0 48.325-39.175 87.5-87.5 87.5-45.848 0-83.016-37.167-83.016-83.016 0-1.455.038-2.91.115-4.363L10 10z" id="h"/><path d="M43.054 117.507l4.078-17.979.192.003c1.312 4.49 4.998 7.204 10.072 7.317 9.954.223 17.398-9.618 17.478-23.22.052-8.887-4.388-14.315-11.652-14.15-4.345.097-8.24 2.138-10.83 5.953l-.222.003 1.117-5.204-10.628.233L32 117.113l11.054.394zm11.983-19.792c-3.49-.04-5.754-2.863-5.695-6.975.095-6.514 3.931-12.283 8.672-12.339 3.467-.041 5.635 2.744 5.593 7.095-.067 6.928-3.864 12.273-8.57 12.22zm30.795 9.22l4.387-22.077c.8-4.117 3.728-6.986 7.228-7.028 3.18-.038 5.35 2.143 5.36 5.192.002.806-.091 1.647-.247 2.664l-4.143 21.522 10.947.238 4.409-23.708c.308-1.67.457-3.233.447-4.689-.04-6.319-4.289-10.802-10.696-10.656-4.916.112-8.785 2.734-11.23 6.729l-.223.003L95.617 57l-10.808.392-9.989 49.303 11.012.24zm36.922 13.41l3.604-19.724.192.003c1.429 4.92 5.184 7.887 10.257 8 9.954.223 17.145-10.551 16.88-25.421-.173-9.715-4.753-15.659-12.017-15.495-4.345.098-8.19 2.326-10.681 6.5l-.223.004.982-5.7-10.628.232-9.42 51.208 11.054.393zm11.458-21.72c-3.49-.04-5.827-3.132-5.875-7.64-.075-7.14 3.612-13.46 8.352-13.515 3.468-.041 5.708 3.01 5.778 7.772.11 7.582-3.548 13.437-8.255 13.383z" id="l"/></defs><g fill="none" fill-rule="evenodd"><path d="M39.629 88.6L182 80v96.5c0 41.697-33.803 75.5-75.5 75.5-39.554 0-71.618-32.065-71.618-71.618 0-1.26.033-2.52.1-3.777L39.628 88.6z" fill="url(#a)" opacity=".5" filter="url(#b)" transform="translate(56 11)"/><g transform="translate(56 11)"><use fill="url(#c)" xlink:href="#d"/><use fill-opacity=".09" fill="#000" xlink:href="#d"/><use fill="#000" filter="url(#e)" xlink:href="#d"/></g><g filter="url(#f)" transform="translate(56 11)"><use fill="url(#g)" xlink:href="#h"/><use fill="#000" filter="url(#i)" xlink:href="#h"/></g><path d="M56.054 130.507l4.078-17.979.192.003c1.312 4.49 4.998 7.204 10.072 7.317 9.954.223 17.398-9.618 17.478-23.22.052-8.887-4.388-14.315-11.652-14.15-4.345.097-8.24 2.138-10.83 5.953l-.222.003 1.117-5.204-10.628.233L45 130.113l11.054.394zm11.983-19.792c-3.49-.04-5.754-2.863-5.695-6.975.095-6.514 3.931-12.283 8.672-12.339 3.467-.041 5.635 2.744 5.593 7.095-.067 6.928-3.864 12.273-8.57 12.22zm30.795 9.22l4.387-22.077c.8-4.117 3.728-6.986 7.228-7.028 3.18-.038 5.35 2.143 5.36 5.192.002.806-.091 1.647-.247 2.664l-4.143 21.522 10.947.238 4.409-23.708c.308-1.67.457-3.233.447-4.689-.04-6.319-4.289-10.802-10.696-10.656-4.916.112-8.785 2.734-11.23 6.729l-.223.003L108.617 70l-10.808.392-9.989 49.303 11.012.24zm36.922 13.41l3.604-19.724.192.003c1.429 4.92 5.184 7.887 10.257 8 9.954.223 17.145-10.551 16.88-25.421-.173-9.715-4.753-15.659-12.017-15.495-4.345.098-8.19 2.326-10.681 6.5l-.223.004.982-5.7-10.628.232-9.42 51.208 11.054.393zm11.458-21.72c-3.49-.04-5.827-3.132-5.875-7.64-.075-7.14 3.612-13.46 8.352-13.515 3.468-.041 5.708 3.01 5.778 7.772.11 7.582-3.548 13.437-8.255 13.383z" fill="url(#j)" filter="url(#k)" transform="translate(56 11)"/><g transform="translate(56 11)"><use fill="#FFF" xlink:href="#l"/><use fill="#000" filter="url(#m)" xlink:href="#l"/></g></g></svg>