<svg width="164.5" height="177" viewBox="0 0 329 354" xmlns="http://www.w3.org/2000/svg" xmlns:xlink="http://www.w3.org/1999/xlink"><defs><filter x="-57.2%" y="-52.5%" width="217%" height="205%" filterUnits="objectBoundingBox" id="b"><feGaussianBlur stdDeviation="30.1" in="SourceGraphic"/></filter><filter x="-4%" y="-3.3%" width="108%" height="106.7%" filterUnits="objectBoundingBox" id="e"><feGaussianBlur stdDeviation="5" in="SourceAlpha" result="shadowBlurInner1"/><feOffset dx="3" dy="-4" in="shadowBlurInner1" result="shadowOffsetInner1"/><feComposite in="shadowOffsetInner1" in2="SourceAlpha" operator="arithmetic" k2="-1" k3="1" result="shadowInnerInner1"/><feColorMatrix values="0 0 0 0 1 0 0 0 0 1 0 0 0 0 1 0 0 0 0.25 0" in="shadowInnerInner1"/></filter><filter x="-1.4%" y="-3.5%" width="105.4%" height="107%" filterUnits="objectBoundingBox" id="h"><feGaussianBlur stdDeviation="5" in="SourceAlpha" result="shadowBlurInner1"/><feOffset dx="4" dy="1" in="shadowBlurInner1" result="shadowOffsetInner1"/><feComposite in="shadowOffsetInner1" in2="SourceAlpha" operator="arithmetic" k2="-1" k3="1" result="shadowInnerInner1"/><feColorMatrix values="0 0 0 0 1 0 0 0 0 1 0 0 0 0 1 0 0 0 0.5 0" in="shadowInnerInner1"/></filter><filter x="-27.1%" y="-35.8%" width="154.2%" height="171.6%" filterUnits="objectBoundingBox" id="j"><feGaussianBlur stdDeviation="10" in="SourceGraphic"/></filter><filter x="-6.8%" y="-9%" width="113.5%" height="117.9%" filterUnits="objectBoundingBox" id="l"><feGaussianBlur stdDeviation="5" in="SourceAlpha" result="shadowBlurInner1"/><feOffset dy="5" in="shadowBlurInner1" result="shadowOffsetInner1"/><feComposite in="shadowOffsetInner1" in2="SourceAlpha" operator="arithmetic" k2="-1" k3="1" result="shadowInnerInner1"/><feColorMatrix values="0 0 0 0 1 0 0 0 0 1 0 0 0 0 1 0 0 0 0.5 0" in="shadowInnerInner1" result="shadowMatrixInner1"/><feGaussianBlur stdDeviation="2.5" in="SourceAlpha" result="shadowBlurInner2"/><feOffset dy="-5" in="shadowBlurInner2" result="shadowOffsetInner2"/><feComposite in="shadowOffsetInner2" in2="SourceAlpha" operator="arithmetic" k2="-1" k3="1" result="shadowInnerInner2"/><feColorMatrix values="0 0 0 0 0.0588235294 0 0 0 0 0.874509804 0 0 0 0 1 0 0 0 0.31 0" in="shadowInnerInner2" result="shadowMatrixInner2"/><feMerge><feMergeNode in="shadowMatrixInner1"/><feMergeNode in="shadowMatrixInner2"/></feMerge></filter><linearGradient x1="88.536%" y1="0%" x2="11.464%" y2="100%" id="a"><stop stop-color="#02E8FF" offset="0%"/><stop stop-color="#A177FF" offset="100%"/></linearGradient><linearGradient x1="84.722%" y1="0%" x2="15.278%" y2="100%" id="c"><stop stop-color="#02E8FF" offset="0%"/><stop stop-color="#A177FF" offset="100%"/></linearGradient><linearGradient x1="88.281%" y1="0%" x2="11.719%" y2="100%" id="f"><stop stop-color="#02E8FF" offset="0%"/><stop stop-color="#A177FF" offset="100%"/></linearGradient><linearGradient x1="100%" y1="21.39%" x2="0%" y2="78.61%" id="i"><stop stop-color="#00C0D3" offset="0%"/><stop stop-color="#702FFF" offset="100%"/></linearGradient><path d="M10 10L175 0l10 10v112.5c0 48.325-39.175 87.5-87.5 87.5S10 170.825 10 122.5V10z" id="d"/><path d="M10 10L175 0v112.5c0 48.325-39.175 87.5-87.5 87.5-45.848 0-83.016-37.167-83.016-83.016 0-1.455.038-2.91.115-4.363L10 10z" id="g"/><path d="M37.192 126.466l17.845 1.248.426-23.823 11.995.314c16.749.437 27.206-10.465 27.19-27.55-.016-16.925-10.005-27.759-26.012-26.565l-29.49 2.194-1.954 74.182zm18.532-37.184l.418-23.336 8.56-.39c7.785-.355 11.92 4.126 11.862 11.52-.057 7.356-4.315 12.187-12.187 12.196l-8.653.01zm90.16-1.9l-15.896.576c-.57-4.136-3.8-7.032-8.355-6.964-3.901.059-7.04 2.015-7.113 5.135v.214c-.01 2.455 1.501 4.37 6.129 5.47l10.554 2.429c10.94 2.646 16.362 8.544 16.693 18.381.293 13.87-10.326 22.095-25.235 21.029-15.908-1.139-25.375-9.69-26.656-22.013l17.314.153c.8 4.681 4.209 7.339 9.212 7.582 4.5.218 7.559-1.807 7.572-5.09-.123-2.903-2.232-4.677-6.797-5.88l-9.615-2.41c-10.837-2.586-16.243-8.715-16.34-18.026l-.002-.39c-.098-12.439 9.183-20.11 23.771-20.678 14.58-.568 23.507 7.185 24.764 20.481z" id="k"/></defs><g fill="none" fill-rule="evenodd"><path d="M38.629 88.6L181 80v96.5c0 41.697-33.803 75.5-75.5 75.5-39.554 0-71.618-32.065-71.618-71.618 0-1.26.033-2.52.1-3.777L38.628 88.6z" fill="url(#a)" opacity=".5" filter="url(#b)" transform="translate(57 11)"/><g transform="translate(57 11)"><use fill="url(#c)" xlink:href="#d"/><use fill-opacity=".09" fill="#000" xlink:href="#d"/><use fill="#000" filter="url(#e)" xlink:href="#d"/></g><g transform="translate(57 11)"><use fill="url(#f)" xlink:href="#g"/><use fill="#000" filter="url(#h)" xlink:href="#g"/></g><path d="M50.192 139.466l17.845 1.248.426-23.823 11.995.314c16.749.437 27.206-10.465 27.19-27.55-.016-16.925-10.005-27.759-26.012-26.565l-29.49 2.194-1.954 74.182zm18.532-37.184l.418-23.336 8.56-.39c7.785-.355 11.92 4.126 11.862 11.52-.057 7.356-4.315 12.187-12.187 12.196l-8.653.01zm90.16-1.9l-15.896.576c-.57-4.136-3.8-7.032-8.355-6.964-3.901.059-7.04 2.015-7.113 5.135v.214c-.01 2.455 1.501 4.37 6.129 5.47l10.554 2.429c10.94 2.646 16.362 8.544 16.693 18.381.293 13.87-10.326 22.095-25.235 21.029-15.908-1.139-25.375-9.69-26.656-22.013l17.314.153c.8 4.681 4.209 7.339 9.212 7.582 4.5.218 7.559-1.807 7.572-5.09-.123-2.903-2.232-4.677-6.797-5.88l-9.615-2.41c-10.837-2.586-16.243-8.715-16.34-18.026l-.002-.39c-.098-12.439 9.183-20.11 23.771-20.678 14.58-.568 23.507 7.185 24.764 20.481z" fill="url(#i)" filter="url(#j)" transform="translate(57 11)"/><g transform="translate(57 11)"><use fill="#FFF" xlink:href="#k"/><use fill="#000" filter="url(#l)" xlink:href="#k"/></g></g></svg>