<svg width="164.5" height="177" viewBox="0 0 329 354" xmlns="http://www.w3.org/2000/svg" xmlns:xlink="http://www.w3.org/1999/xlink"><defs><filter x="-57.2%" y="-52.5%" width="217%" height="205%" filterUnits="objectBoundingBox" id="b"><feGaussianBlur stdDeviation="30.1" in="SourceGraphic"/></filter><filter x="-4%" y="-3.3%" width="108%" height="106.7%" filterUnits="objectBoundingBox" id="e"><feGaussianBlur stdDeviation="5" in="SourceAlpha" result="shadowBlurInner1"/><feOffset dx="3" dy="-4" in="shadowBlurInner1" result="shadowOffsetInner1"/><feComposite in="shadowOffsetInner1" in2="SourceAlpha" operator="arithmetic" k2="-1" k3="1" result="shadowInnerInner1"/><feColorMatrix values="0 0 0 0 1 0 0 0 0 1 0 0 0 0 1 0 0 0 0.25 0" in="shadowInnerInner1"/></filter><filter x="-1.4%" y="-3.5%" width="105.4%" height="107%" filterUnits="objectBoundingBox" id="h"><feGaussianBlur stdDeviation="5" in="SourceAlpha" result="shadowBlurInner1"/><feOffset dx="4" dy="1" in="shadowBlurInner1" result="shadowOffsetInner1"/><feComposite in="shadowOffsetInner1" in2="SourceAlpha" operator="arithmetic" k2="-1" k3="1" result="shadowInnerInner1"/><feColorMatrix values="0 0 0 0 1 0 0 0 0 1 0 0 0 0 1 0 0 0 0.5 0" in="shadowInnerInner1"/></filter><filter x="-30%" y="-30%" width="160%" height="160.1%" filterUnits="objectBoundingBox" id="j"><feGaussianBlur stdDeviation="10" in="SourceGraphic"/></filter><filter x="-8.5%" y="-8.5%" width="117%" height="117%" filterUnits="objectBoundingBox" id="l"><feGaussianBlur stdDeviation="5.5" in="SourceAlpha" result="shadowBlurInner1"/><feOffset dy="6" in="shadowBlurInner1" result="shadowOffsetInner1"/><feComposite in="shadowOffsetInner1" in2="SourceAlpha" operator="arithmetic" k2="-1" k3="1" result="shadowInnerInner1"/><feColorMatrix values="0 0 0 0 1 0 0 0 0 1 0 0 0 0 1 0 0 0 0.5 0" in="shadowInnerInner1" result="shadowMatrixInner1"/><feGaussianBlur stdDeviation="3" in="SourceAlpha" result="shadowBlurInner2"/><feOffset dy="-6" in="shadowBlurInner2" result="shadowOffsetInner2"/><feComposite in="shadowOffsetInner2" in2="SourceAlpha" operator="arithmetic" k2="-1" k3="1" result="shadowInnerInner2"/><feColorMatrix values="0 0 0 0 0.992156863 0 0 0 0 0.603921569 0 0 0 0 0 0 0 0 0.3 0" in="shadowInnerInner2" result="shadowMatrixInner2"/><feMerge><feMergeNode in="shadowMatrixInner1"/><feMergeNode in="shadowMatrixInner2"/></feMerge></filter><linearGradient x1="88.536%" y1="0%" x2="11.464%" y2="100%" id="a"><stop stop-color="#FFD200" offset="0%"/><stop stop-color="#FD9A00" offset="52.391%"/><stop stop-color="#F6512C" offset="100%"/></linearGradient><linearGradient x1="84.722%" y1="0%" x2="15.278%" y2="100%" id="c"><stop stop-color="#FFD200" offset="0%"/><stop stop-color="#FD9A00" offset="52.391%"/><stop stop-color="#F6512C" offset="100%"/></linearGradient><linearGradient x1="88.281%" y1="0%" x2="11.719%" y2="100%" id="f"><stop stop-color="#FFD200" offset="0%"/><stop stop-color="#FD9A00" offset="52.391%"/><stop stop-color="#F6512C" offset="100%"/></linearGradient><linearGradient x1="95.181%" y1="4.968%" x2=".333%" y2="99.502%" id="i"><stop stop-color="#F80" offset="0%"/><stop stop-color="#EA3F00" offset="100%"/></linearGradient><path d="M10 10L175 0l10 10v112.5c0 48.325-39.175 87.5-87.5 87.5S10 170.825 10 122.5V10z" id="d"/><path d="M10 10L175 0v112.5c0 48.325-39.175 87.5-87.5 87.5-45.848 0-83.016-37.167-83.016-83.016 0-1.455.038-2.91.115-4.363L10 10z" id="g"/><path d="M44.743 76.007L41 81.361l18.309-.266 1.396-28.278-15.962 23.19zM93.337 46l27.453 32.394-1.437-30.491L93.337 46zM61.878 87.811l-2.266-4.733-18.43.232 45.499 57.442-24.803-52.94zm.405-6.759l57.455-.835L103.25 60.53 91.03 46.332l-28.747 34.72zm60.145 1.212L95.34 141.121l45.479-59.065-18.39.231v-.023zm.79-29.188l-1.902-2.81.182 3.954 1.234 25.954L141 79.909l-17.783-26.833zM62.14 60.79l-.93 18.548L88.683 46.22l-26.017 4.196-.526 10.373zm-.465 22.241l8.577 17.983 20.777 44.821 29.315-63.543-58.67.74z" id="k"/></defs><g fill="none" fill-rule="evenodd"><path d="M38.629 88.6L181 80v96.5c0 41.697-33.803 75.5-75.5 75.5-39.554 0-71.618-32.065-71.618-71.618 0-1.26.033-2.52.1-3.777L38.628 88.6z" fill="url(#a)" opacity=".5" filter="url(#b)" transform="translate(57 11)"/><g transform="translate(57 11)"><use fill="url(#c)" xlink:href="#d"/><use fill-opacity=".09" fill="#000" xlink:href="#d"/><use fill="#000" filter="url(#e)" xlink:href="#d"/></g><g transform="translate(57 11)"><use fill="url(#f)" xlink:href="#g"/><use fill="#000" filter="url(#h)" xlink:href="#g"/></g><path d="M58.743 90.007L55 95.361l18.309-.266 1.396-28.278-15.962 23.19zM107.337 60l27.453 32.394-1.437-30.491L107.337 60zm-31.459 41.811l-2.266-4.733-18.43.232 45.499 57.442-24.803-52.94zm.405-6.759l57.455-.835L117.25 74.53l-12.22-14.197-28.747 34.72zm60.145 1.212l-27.089 58.857 45.479-59.065-18.39.231v-.023zm.79-29.188l-1.902-2.81.182 3.954 1.234 25.954L155 93.909l-17.783-26.833zM76.14 74.79l-.93 18.548 27.473-33.117-26.017 4.196-.526 10.373zm-.465 22.241l8.577 17.983 20.777 44.821 29.315-63.543-58.67.74z" fill="url(#i)" filter="url(#j)" transform="translate(57 11)"/><g transform="translate(57 11)"><use fill="#FFF" xlink:href="#k"/><use fill="#000" filter="url(#l)" xlink:href="#k"/></g></g></svg>