<svg width="82.25" height="88.5" viewBox="0 0 329 354" xmlns="http://www.w3.org/2000/svg" xmlns:xlink="http://www.w3.org/1999/xlink"><defs><filter x="-57.2%" y="-52.5%" width="217%" height="205%" filterUnits="objectBoundingBox" id="b"><feGaussianBlur stdDeviation="30.1" in="SourceGraphic"/></filter><filter x="-4%" y="-3.3%" width="108%" height="106.7%" filterUnits="objectBoundingBox" id="e"><feGaussianBlur stdDeviation="5" in="SourceAlpha" result="shadowBlurInner1"/><feOffset dx="3" dy="-4" in="shadowBlurInner1" result="shadowOffsetInner1"/><feComposite in="shadowOffsetInner1" in2="SourceAlpha" operator="arithmetic" k2="-1" k3="1" result="shadowInnerInner1"/><feColorMatrix values="0 0 0 0 1 0 0 0 0 1 0 0 0 0 1 0 0 0 0.25 0" in="shadowInnerInner1"/></filter><filter x="-1.4%" y="-3.5%" width="105.4%" height="107%" filterUnits="objectBoundingBox" id="h"><feGaussianBlur stdDeviation="5" in="SourceAlpha" result="shadowBlurInner1"/><feOffset dx="4" dy="1" in="shadowBlurInner1" result="shadowOffsetInner1"/><feComposite in="shadowOffsetInner1" in2="SourceAlpha" operator="arithmetic" k2="-1" k3="1" result="shadowInnerInner1"/><feColorMatrix values="0 0 0 0 1 0 0 0 0 1 0 0 0 0 1 0 0 0 0.5 0" in="shadowInnerInner1"/></filter><filter x="-30%" y="-30%" width="160%" height="160%" filterUnits="objectBoundingBox" id="j"><feGaussianBlur stdDeviation="10" in="SourceGraphic"/></filter><filter x="-7.5%" y="-7.5%" width="115%" height="115%" filterUnits="objectBoundingBox" id="l"><feGaussianBlur stdDeviation="5" in="SourceAlpha" result="shadowBlurInner1"/><feOffset dy="5" in="shadowBlurInner1" result="shadowOffsetInner1"/><feComposite in="shadowOffsetInner1" in2="SourceAlpha" operator="arithmetic" k2="-1" k3="1" result="shadowInnerInner1"/><feColorMatrix values="0 0 0 0 1 0 0 0 0 1 0 0 0 0 1 0 0 0 0.5 0" in="shadowInnerInner1" result="shadowMatrixInner1"/><feGaussianBlur stdDeviation="2.5" in="SourceAlpha" result="shadowBlurInner2"/><feOffset dy="-5" in="shadowBlurInner2" result="shadowOffsetInner2"/><feComposite in="shadowOffsetInner2" in2="SourceAlpha" operator="arithmetic" k2="-1" k3="1" result="shadowInnerInner2"/><feColorMatrix values="0 0 0 0 0.0588235294 0 0 0 0 0.874509804 0 0 0 0 1 0 0 0 0.31 0" in="shadowInnerInner2" result="shadowMatrixInner2"/><feMerge><feMergeNode in="shadowMatrixInner1"/><feMergeNode in="shadowMatrixInner2"/></feMerge></filter><linearGradient x1="88.536%" y1="0%" x2="11.464%" y2="100%" id="a"><stop stop-color="#02E8FF" offset="0%"/><stop stop-color="#A177FF" offset="100%"/></linearGradient><linearGradient x1="84.722%" y1="0%" x2="15.278%" y2="100%" id="c"><stop stop-color="#02E8FF" offset="0%"/><stop stop-color="#A177FF" offset="100%"/></linearGradient><linearGradient x1="88.281%" y1="0%" x2="11.719%" y2="100%" id="f"><stop stop-color="#02E8FF" offset="0%"/><stop stop-color="#A177FF" offset="100%"/></linearGradient><linearGradient x1="100%" y1="0%" x2="0%" y2="100%" id="i"><stop stop-color="#00C0D3" offset="0%"/><stop stop-color="#702FFF" offset="100%"/></linearGradient><path d="M10 10L175 0l10 10v112.5c0 48.325-39.175 87.5-87.5 87.5S10 170.825 10 122.5V10z" id="d"/><path d="M10 10L175 0v112.5c0 48.325-39.175 87.5-87.5 87.5-45.848 0-83.016-37.167-83.016-83.016 0-1.455.038-2.91.115-4.363L10 10z" id="g"/><path d="M91.48 40l-.392.13-45.834 10.157-3.254.78v77.866l3.254.78 45.834 10.158.391.129h8.854v-12.5H142v-75h-41.667V40H91.48zm.52 8.462v83.08l-41.667-9.125V57.583L92 48.463zm8.333 12.371h33.334v58.334h-33.334v-8.334H129.5V102.5h-29.167v-4.167H129.5V90h-29.167v-4.167H129.5V77.5h-29.167v-4.167H129.5V65h-29.167v-4.167zm-12.5 8.334l-6.512.52c-.488 3.305-3.075 21.126-3.125 22.526L75.463 70.47l-8.855 1.3-3.516 22.525-2.342-21.742-6.25.78 4.167 33.333 8.075 1.304 4.554-26.696c.033 1.5 3.158 22.137 4.037 28.125l6.121 1.042 6.38-41.275z" id="k"/></defs><g fill="none" fill-rule="evenodd"><path d="M39.629 88.6L182 80v96.5c0 41.697-33.803 75.5-75.5 75.5-39.554 0-71.618-32.065-71.618-71.618 0-1.26.033-2.52.1-3.777L39.628 88.6z" fill="url(#a)" opacity=".5" filter="url(#b)" transform="translate(56 11)"/><g transform="translate(56 11)"><use fill="url(#c)" xlink:href="#d"/><use fill-opacity=".09" fill="#000" xlink:href="#d"/><use fill="#000" filter="url(#e)" xlink:href="#d"/></g><g transform="translate(56 11)"><use fill="url(#f)" xlink:href="#g"/><use fill="#000" filter="url(#h)" xlink:href="#g"/></g><path d="M104.48 53l-.392.13-45.834 10.157-3.254.78v77.866l3.254.78 45.834 10.158.391.129h8.854v-12.5H155v-75h-41.667V53h-8.854zm.52 8.462v83.08l-41.667-9.125V70.583L105 61.463zm8.333 12.371h33.334v58.334h-33.334v-8.334H142.5V115.5h-29.167v-4.167H142.5V103h-29.167v-4.167H142.5V90.5h-29.167v-4.167H142.5V78h-29.167v-4.167zm-12.5 8.334l-6.512.52c-.488 3.305-3.075 21.126-3.125 22.526L88.463 83.47l-8.855 1.3-3.516 22.525-2.342-21.742-6.25.78 4.167 33.333 8.075 1.304 4.554-26.696c.033 1.5 3.158 22.137 4.037 28.125l6.121 1.042 6.38-41.275z" fill="url(#i)" filter="url(#j)" transform="translate(56 11)"/><g transform="translate(56 11)"><use fill="#FFF" xlink:href="#k"/><use fill="#000" filter="url(#l)" xlink:href="#k"/></g></g></svg>