<svg width="164.5" height="177" viewBox="0 0 329 354" xmlns="http://www.w3.org/2000/svg" xmlns:xlink="http://www.w3.org/1999/xlink"><defs><filter x="-57.2%" y="-52.5%" width="217%" height="205%" filterUnits="objectBoundingBox" id="b"><feGaussianBlur stdDeviation="30.1" in="SourceGraphic"/></filter><filter x="-4%" y="-3.3%" width="108%" height="106.7%" filterUnits="objectBoundingBox" id="e"><feGaussianBlur stdDeviation="5" in="SourceAlpha" result="shadowBlurInner1"/><feOffset dx="3" dy="-4" in="shadowBlurInner1" result="shadowOffsetInner1"/><feComposite in="shadowOffsetInner1" in2="SourceAlpha" operator="arithmetic" k2="-1" k3="1" result="shadowInnerInner1"/><feColorMatrix values="0 0 0 0 1 0 0 0 0 1 0 0 0 0 1 0 0 0 0.25 0" in="shadowInnerInner1"/></filter><filter x="-1.4%" y="-3.5%" width="105.4%" height="107%" filterUnits="objectBoundingBox" id="h"><feGaussianBlur stdDeviation="5" in="SourceAlpha" result="shadowBlurInner1"/><feOffset dx="4" dy="1" in="shadowBlurInner1" result="shadowOffsetInner1"/><feComposite in="shadowOffsetInner1" in2="SourceAlpha" operator="arithmetic" k2="-1" k3="1" result="shadowInnerInner1"/><feColorMatrix values="0 0 0 0 1 0 0 0 0 1 0 0 0 0 1 0 0 0 0.5 0" in="shadowInnerInner1"/></filter><filter x="-26.5%" y="-39%" width="153.1%" height="177.9%" filterUnits="objectBoundingBox" id="j"><feGaussianBlur stdDeviation="10" in="SourceGraphic"/></filter><filter x="-6.2%" y="-9.1%" width="112.4%" height="118.2%" filterUnits="objectBoundingBox" id="l"><feGaussianBlur stdDeviation="4.5" in="SourceAlpha" result="shadowBlurInner1"/><feOffset dy="5" in="shadowBlurInner1" result="shadowOffsetInner1"/><feComposite in="shadowOffsetInner1" in2="SourceAlpha" operator="arithmetic" k2="-1" k3="1" result="shadowInnerInner1"/><feColorMatrix values="0 0 0 0 1 0 0 0 0 1 0 0 0 0 1 0 0 0 0.5 0" in="shadowInnerInner1" result="shadowMatrixInner1"/><feGaussianBlur stdDeviation="2.5" in="SourceAlpha" result="shadowBlurInner2"/><feOffset dy="-5" in="shadowBlurInner2" result="shadowOffsetInner2"/><feComposite in="shadowOffsetInner2" in2="SourceAlpha" operator="arithmetic" k2="-1" k3="1" result="shadowInnerInner2"/><feColorMatrix values="0 0 0 0 1 0 0 0 0 0.48 0 0 0 0 0.497333333 0 0 0 0.3 0" in="shadowInnerInner2" result="shadowMatrixInner2"/><feMerge><feMergeNode in="shadowMatrixInner1"/><feMergeNode in="shadowMatrixInner2"/></feMerge></filter><linearGradient x1="88.536%" y1="0%" x2="11.464%" y2="100%" id="a"><stop stop-color="#FFB900" offset="0%"/><stop stop-color="#FF7A7F" offset="52.391%"/><stop stop-color="#E63B3B" offset="100%"/></linearGradient><linearGradient x1="84.722%" y1="0%" x2="15.278%" y2="100%" id="c"><stop stop-color="#FFB900" offset="0%"/><stop stop-color="#FF7A7F" offset="52.391%"/><stop stop-color="#E63B3B" offset="100%"/></linearGradient><linearGradient x1="88.281%" y1="0%" x2="11.719%" y2="100%" id="f"><stop stop-color="#FFB900" offset="0%"/><stop stop-color="#FF7A7F" offset="52.391%"/><stop stop-color="#E63B3B" offset="100%"/></linearGradient><linearGradient x1="100%" y1="26.784%" x2="0%" y2="73.216%" id="i"><stop stop-color="#D69C00" offset="0%"/><stop stop-color="#FF3F47" offset="52.391%"/><stop stop-color="#B30101" offset="100%"/></linearGradient><path d="M10 10L175 0l10 10v112.5c0 48.325-39.175 87.5-87.5 87.5S10 170.825 10 122.5V10z" id="d"/><path d="M10 10L175 0v112.5c0 48.325-39.175 87.5-87.5 87.5-45.848 0-83.016-37.167-83.016-83.016 0-1.455.038-2.91.115-4.363L10 10z" id="g"/><path d="M50.95 52.039l-18.422.79 20.436 33.713L32 120.251l18.62.782 12.677-21.839.529.008 12.677 22.92 18.752.787-21.063-36.377 20.403-36.368-18.29.786-12.48 22.682-.528.009L50.95 52.039zm63.314 72.468c7.66.33 12.215-4.226 14.262-9.391l.495.016v9.196L145 125V48l-16.144.693v28.62l-.33.003c-1.915-5.173-6.339-10.304-14.328-10.124-10.598.239-20.205 9.22-20.205 28.45 0 18.557 9.08 28.385 20.27 28.865zm5.612-13.686c-5.975-.162-9.31-6.076-9.31-15.046 0-8.934 3.302-14.707 9.31-14.747 5.91-.04 9.343 5.664 9.343 14.937 0 9.198-3.466 15.015-9.343 14.856z" id="k"/></defs><g fill="none" fill-rule="evenodd"><path d="M38.629 88.6L181 80v96.5c0 41.697-33.803 75.5-75.5 75.5-39.554 0-71.618-32.065-71.618-71.618 0-1.26.033-2.52.1-3.777L38.628 88.6z" fill="url(#a)" opacity=".5" filter="url(#b)" transform="translate(57 11)"/><g transform="translate(57 11)"><use fill="url(#c)" xlink:href="#d"/><use fill-opacity=".09" fill="#000" xlink:href="#d"/><use fill="#000" filter="url(#e)" xlink:href="#d"/></g><g transform="translate(57 11)"><use fill="url(#f)" xlink:href="#g"/><use fill="#000" filter="url(#h)" xlink:href="#g"/></g><path d="M63.95 65.039l-18.422.79 20.436 33.713L45 133.251l18.62.782 12.677-21.839.529.008 12.677 22.92 18.752.787-21.063-36.377 20.403-36.368-18.29.786-12.48 22.682-.528.009L63.95 65.039zm63.314 72.468c7.66.33 12.215-4.226 14.262-9.391l.495.016v9.196L158 138V61l-16.144.693v28.62l-.33.003c-1.915-5.173-6.339-10.304-14.328-10.124-10.598.239-20.205 9.22-20.205 28.45 0 18.557 9.08 28.385 20.27 28.865zm5.612-13.686c-5.975-.162-9.31-6.076-9.31-15.046 0-8.934 3.302-14.707 9.31-14.747 5.91-.04 9.343 5.664 9.343 14.937 0 9.198-3.466 15.015-9.343 14.856z" fill="url(#i)" filter="url(#j)" transform="translate(57 11)"/><g transform="translate(57 11)"><use fill="#FFF" xlink:href="#k"/><use fill="#000" filter="url(#l)" xlink:href="#k"/></g></g></svg>