<?xml version="1.0" encoding="UTF-8"?>
<svg width="164.5px" height="177px" viewBox="0 0 328 352" version="1.1" xmlns="http://www.w3.org/2000/svg" xmlns:xlink="http://www.w3.org/1999/xlink">
    <title>css</title>
    <defs>
        <linearGradient x1="88.536033%" y1="0%" x2="11.463967%" y2="100%" id="linearGradient-1">
            <stop stop-color="#02E8FF" offset="0%"></stop>
            <stop stop-color="#A177FF" offset="100%"></stop>
        </linearGradient>
        <filter x="-57.0%" y="-52.3%" width="216.6%" height="204.7%" filterUnits="objectBoundingBox" id="filter-2">
            <feGaussianBlur stdDeviation="30" in="SourceGraphic"></feGaussianBlur>
        </filter>
        <linearGradient x1="84.7222222%" y1="0%" x2="15.2777778%" y2="100%" id="linearGradient-3">
            <stop stop-color="#02E8FF" offset="0%"></stop>
            <stop stop-color="#A177FF" offset="100%"></stop>
        </linearGradient>
        <path d="M10,10 L175,0 L185,10 L185,122.5 C185,170.824916 145.824916,210 97.5,210 C49.1750844,210 10,170.824916 10,122.5 L10,10 L10,10 Z" id="path-4"></path>
        <filter x="-4.0%" y="-3.3%" width="108.0%" height="106.7%" filterUnits="objectBoundingBox" id="filter-5">
            <feGaussianBlur stdDeviation="5" in="SourceAlpha" result="shadowBlurInner1"></feGaussianBlur>
            <feOffset dx="3" dy="-4" in="shadowBlurInner1" result="shadowOffsetInner1"></feOffset>
            <feComposite in="shadowOffsetInner1" in2="SourceAlpha" operator="arithmetic" k2="-1" k3="1" result="shadowInnerInner1"></feComposite>
            <feColorMatrix values="0 0 0 0 1   0 0 0 0 1   0 0 0 0 1  0 0 0 0.25 0" type="matrix" in="shadowInnerInner1"></feColorMatrix>
        </filter>
        <linearGradient x1="88.28125%" y1="0%" x2="11.71875%" y2="100%" id="linearGradient-6">
            <stop stop-color="#02E8FF" offset="0%"></stop>
            <stop stop-color="#A177FF" offset="100%"></stop>
        </linearGradient>
        <path d="M10,10 L175,0 L175,112.5 C175,160.824916 135.824916,200 87.5,200 C41.6516153,200 4.48415583,162.832541 4.48415583,116.984156 C4.48415583,115.528996 4.52241641,114.074088 4.5988979,112.62094 L10,10 L10,10 Z" id="path-7"></path>
        <filter x="-1.4%" y="-3.5%" width="105.4%" height="107.0%" filterUnits="objectBoundingBox" id="filter-8">
            <feGaussianBlur stdDeviation="5" in="SourceAlpha" result="shadowBlurInner1"></feGaussianBlur>
            <feOffset dx="4" dy="1" in="shadowBlurInner1" result="shadowOffsetInner1"></feOffset>
            <feComposite in="shadowOffsetInner1" in2="SourceAlpha" operator="arithmetic" k2="-1" k3="1" result="shadowInnerInner1"></feComposite>
            <feColorMatrix values="0 0 0 0 1   0 0 0 0 1   0 0 0 0 1  0 0 0 0.5 0" type="matrix" in="shadowInnerInner1"></feColorMatrix>
        </filter>
        <linearGradient x1="74.9504672%" y1="0%" x2="25.0495328%" y2="100%" id="linearGradient-9">
            <stop stop-color="#00C0D3" offset="0%"></stop>
            <stop stop-color="#702FFF" offset="100%"></stop>
        </linearGradient>
        <filter x="-39.8%" y="-28.1%" width="179.5%" height="156.2%" filterUnits="objectBoundingBox" id="filter-10">
            <feGaussianBlur stdDeviation="10" in="SourceGraphic"></feGaussianBlur>
        </filter>
        <polygon id="path-11" points="125.188066 143.531491 90.4337313 152.633427 55.8863262 140.727106 54.8032512 112.70785 71.1744766 112.8948 71.9885376 127.378666 90.4924088 133.51385 90.5381743 133.617063 90.5500101 133.617438 109.059394 128.567531 110.441592 104.214581 72.7035191 104.129977 71.8306032 85.8615874 111.402157 85.1678275 112.324939 65.6824255 53.3732394 67.9615368 53 50.5125088 128.164327 46"></polygon>
        <filter x="-10.0%" y="-7.0%" width="120.0%" height="114.1%" filterUnits="objectBoundingBox" id="filter-12">
            <feGaussianBlur stdDeviation="5" in="SourceAlpha" result="shadowBlurInner1"></feGaussianBlur>
            <feOffset dx="0" dy="5" in="shadowBlurInner1" result="shadowOffsetInner1"></feOffset>
            <feComposite in="shadowOffsetInner1" in2="SourceAlpha" operator="arithmetic" k2="-1" k3="1" result="shadowInnerInner1"></feComposite>
            <feColorMatrix values="0 0 0 0 1   0 0 0 0 1   0 0 0 0 1  0 0 0 0.5 0" type="matrix" in="shadowInnerInner1" result="shadowMatrixInner1"></feColorMatrix>
            <feGaussianBlur stdDeviation="2.5" in="SourceAlpha" result="shadowBlurInner2"></feGaussianBlur>
            <feOffset dx="0" dy="-5" in="shadowBlurInner2" result="shadowOffsetInner2"></feOffset>
            <feComposite in="shadowOffsetInner2" in2="SourceAlpha" operator="arithmetic" k2="-1" k3="1" result="shadowInnerInner2"></feComposite>
            <feColorMatrix values="0 0 0 0 0.0588235294   0 0 0 0 0.874509804   0 0 0 0 1  0 0 0 0.31 0" type="matrix" in="shadowInnerInner2" result="shadowMatrixInner2"></feColorMatrix>
            <feMerge>
                <feMergeNode in="shadowMatrixInner1"></feMergeNode>
                <feMergeNode in="shadowMatrixInner2"></feMergeNode>
            </feMerge>
        </filter>
    </defs>
    <g id="â-ICONS" stroke="none" stroke-width="1" fill="none" fill-rule="evenodd">
        <g id="CSS" transform="translate(-122.000000, -134.000000)">
            <g id="css" transform="translate(178.000000, 144.000000)">
                <path d="M39.6285714,88.6 L182,80 L182,176.5 C182,218.197499 148.197499,252 106.5,252 C66.946301,252 34.8816925,219.935392 34.8816925,180.381692 C34.8816925,179.122153 34.9149194,177.862834 34.9813387,176.605047 L39.6285714,88.6 L39.6285714,88.6 Z" id="colored-shadow" fill="url(#linearGradient-1)" opacity="0.5" filter="url(#filter-2)"></path>
                <g id="3d-effect">
                    <use fill="url(#linearGradient-3)" fill-rule="evenodd" xlink:href="#path-4"></use>
                    <use fill-opacity="0.09" fill="#000000" fill-rule="evenodd" xlink:href="#path-4"></use>
                    <use fill="black" fill-opacity="1" filter="url(#filter-5)" xlink:href="#path-4"></use>
                </g>
                <g id="emblem">
                    <use fill="url(#linearGradient-6)" fill-rule="evenodd" xlink:href="#path-7"></use>
                    <use fill="black" fill-opacity="1" filter="url(#filter-8)" xlink:href="#path-7"></use>
                </g>
                <polygon id="shadow" fill="url(#linearGradient-9)" filter="url(#filter-10)" points="138.28907 156.897136 103.42765 165.922031 68.7083391 153.877298 67.5218356 125.765776 83.9543199 126.005449 84.8227646 140.536249 103.419152 146.746533 103.465459 146.850189 103.477343 146.850601 122.042372 141.842902 123.345013 117.426065 85.4580765 117.218671 84.5171159 98.8913336 124.242983 98.329395 125.101592 78.7931277 65.9276675 80.8711494 65.4910636 63.3642654 140.940452 59.1146212"></polygon>
                <g id="Path">
                    <use fill="#FFFFFF" fill-rule="evenodd" xlink:href="#path-11"></use>
                    <use fill="black" fill-opacity="1" filter="url(#filter-12)" xlink:href="#path-11"></use>
                </g>
            </g>
        </g>
    </g>
</svg>