<?xml version="1.0" encoding="UTF-8"?>
<svg width="164.5px" height="177px" viewBox="0 0 329 354" version="1.1" xmlns="http://www.w3.org/2000/svg" xmlns:xlink="http://www.w3.org/1999/xlink">
    <title>java</title>
    <defs>
        <linearGradient x1="88.536033%" y1="0%" x2="11.463967%" y2="100%" id="linearGradient-1">
            <stop stop-color="#FFB900" offset="0%"></stop>
            <stop stop-color="#FF7A7F" offset="52.3912584%"></stop>
            <stop stop-color="#E63B3B" offset="100%"></stop>
        </linearGradient>
        <filter x="-57.2%" y="-52.5%" width="217.0%" height="205.0%" filterUnits="objectBoundingBox" id="filter-2">
            <feGaussianBlur stdDeviation="30.1" in="SourceGraphic"></feGaussianBlur>
        </filter>
        <linearGradient x1="84.7222222%" y1="0%" x2="15.2777778%" y2="100%" id="linearGradient-3">
            <stop stop-color="#FFB900" offset="0%"></stop>
            <stop stop-color="#FF7A7F" offset="52.3912584%"></stop>
            <stop stop-color="#E63B3B" offset="100%"></stop>
        </linearGradient>
        <path d="M10,10 L175,0 L185,10 L185,122.5 C185,170.824916 145.824916,210 97.5,210 C49.1750844,210 10,170.824916 10,122.5 L10,10 L10,10 Z" id="path-4"></path>
        <filter x="-4.0%" y="-3.3%" width="108.0%" height="106.7%" filterUnits="objectBoundingBox" id="filter-5">
            <feGaussianBlur stdDeviation="5" in="SourceAlpha" result="shadowBlurInner1"></feGaussianBlur>
            <feOffset dx="3" dy="-4" in="shadowBlurInner1" result="shadowOffsetInner1"></feOffset>
            <feComposite in="shadowOffsetInner1" in2="SourceAlpha" operator="arithmetic" k2="-1" k3="1" result="shadowInnerInner1"></feComposite>
            <feColorMatrix values="0 0 0 0 1   0 0 0 0 1   0 0 0 0 1  0 0 0 0.25 0" type="matrix" in="shadowInnerInner1"></feColorMatrix>
        </filter>
        <linearGradient x1="88.28125%" y1="0%" x2="11.71875%" y2="100%" id="linearGradient-6">
            <stop stop-color="#FFB900" offset="0%"></stop>
            <stop stop-color="#FF7A7F" offset="52.3912584%"></stop>
            <stop stop-color="#E63B3B" offset="100%"></stop>
        </linearGradient>
        <path d="M10,10 L175,0 L175,112.5 C175,160.824916 135.824916,200 87.5,200 C41.6516153,200 4.48415583,162.832541 4.48415583,116.984156 C4.48415583,115.528996 4.52241641,114.074088 4.5988979,112.62094 L10,10 L10,10 Z" id="path-7"></path>
        <filter x="-1.4%" y="-3.5%" width="105.4%" height="107.0%" filterUnits="objectBoundingBox" id="filter-8">
            <feGaussianBlur stdDeviation="5" in="SourceAlpha" result="shadowBlurInner1"></feGaussianBlur>
            <feOffset dx="4" dy="1" in="shadowBlurInner1" result="shadowOffsetInner1"></feOffset>
            <feComposite in="shadowOffsetInner1" in2="SourceAlpha" operator="arithmetic" k2="-1" k3="1" result="shadowInnerInner1"></feComposite>
            <feColorMatrix values="0 0 0 0 1   0 0 0 0 1   0 0 0 0 1  0 0 0 0.5 0" type="matrix" in="shadowInnerInner1"></feColorMatrix>
        </filter>
        <linearGradient x1="63.5573538%" y1="0%" x2="36.4426462%" y2="100%" id="linearGradient-9">
            <stop stop-color="#D69C00" offset="0%"></stop>
            <stop stop-color="#FF3F47" offset="52.3912584%"></stop>
            <stop stop-color="#B30101" offset="100%"></stop>
        </linearGradient>
        <filter x="-48.2%" y="-25.1%" width="196.5%" height="150.2%" filterUnits="objectBoundingBox" id="filter-10">
            <feGaussianBlur stdDeviation="10" in="SourceGraphic"></feGaussianBlur>
        </filter>
    </defs>
    <g id="â-ICONS" stroke="none" stroke-width="1" fill="none" fill-rule="evenodd">
        <g id="Java" transform="translate(-122.000000, -133.000000)">
            <g id="java" transform="translate(178.000000, 144.000000)">
                <path d="M39.6285714,88.6 L182,80 L182,176.5 C182,218.197499 148.197499,252 106.5,252 C66.946301,252 34.8816925,219.935392 34.8816925,180.381692 C34.8816925,179.122153 34.9149194,177.862834 34.9813387,176.605047 L39.6285714,88.6 L39.6285714,88.6 Z" id="colored-shadow" fill="url(#linearGradient-1)" opacity="0.5" filter="url(#filter-2)"></path>
                <g id="3d-effect">
                    <use fill="url(#linearGradient-3)" fill-rule="evenodd" xlink:href="#path-4"></use>
                    <use fill-opacity="0.09" fill="#000000" fill-rule="evenodd" xlink:href="#path-4"></use>
                    <use fill="black" fill-opacity="1" filter="url(#filter-5)" xlink:href="#path-4"></use>
                </g>
                <g id="emblem">
                    <use fill="url(#linearGradient-6)" fill-rule="evenodd" xlink:href="#path-7"></use>
                    <use fill="black" fill-opacity="1" filter="url(#filter-8)" xlink:href="#path-7"></use>
                </g>
                <path d="M78.4019048,131.515238 L78.4019048,152.632381 C78.4019048,156.799048 78.0704762,158.48381 76.9733333,160.124762 C75.8809524,161.72381 74.1114286,162.989524 72.1761905,163.702857 L70.2819048,161.469524 C71.7552381,160.713333 73.0171429,159.493333 73.6047619,158.35619 C74.0926631,157.381305 74.3059076,156.137945 74.3210343,153.265419 L74.3219048,131.515238 L78.4019048,131.515238 Z M89.2809524,137.842857 C93.9895238,137.842857 95.9447619,140.10381 95.9447619,143.531429 L95.9447619,143.531429 L95.9447619,156.939048 L92.932381,156.939048 L92.6314286,154.90381 C90.9771429,156.337143 89.2047619,157.31619 86.8333333,157.31619 C83.1428571,157.31619 81.1828571,155.433333 81.1828571,152.12 C81.1828571,148.274286 84.1571429,145.717143 90.7485714,145.717143 L90.7485714,145.717143 L92.1047619,145.717143 L92.1047619,144.022857 C92.1047619,141.761905 90.9380952,140.669524 88.2238095,140.669524 C86.2657143,140.669524 84.2704762,141.195238 82.727619,141.761905 L82.727619,141.761905 L82.1638095,139.387619 C84.1228571,138.522857 86.532381,137.842857 89.2809524,137.842857 Z M124.300952,137.842857 C129.005714,137.842857 130.966667,140.10381 130.966667,143.531429 L130.966667,143.531429 L130.966667,156.939048 L127.954286,156.939048 L127.651429,154.90381 C125.992381,156.337143 124.222857,157.31619 121.850476,157.31619 C118.160952,157.31619 116.202857,155.433333 116.202857,152.12 C116.202857,148.274286 119.17619,145.717143 125.769524,145.717143 L125.769524,145.717143 L127.125714,145.717143 L127.125714,144.022857 C127.125714,141.761905 125.95619,140.669524 123.245714,140.669524 C121.287619,140.669524 119.289524,141.195238 117.746667,141.761905 L117.746667,141.761905 L117.181905,139.387619 C119.140952,138.522857 121.549524,137.842857 124.300952,137.842857 Z M102.387619,138.186667 L105.964762,149.709524 L106.76,153.171429 C108.565714,148.16381 109.845714,143.08 110.485714,138.187619 L114.553333,138.187619 C113.464762,144.36 111.502857,151.138095 108.75619,156.938095 L103.968571,156.938095 L98.2057143,138.186667 L102.387619,138.186667 Z M92.1047619,148.161905 L90.4885714,148.161905 C86.1152381,148.161905 85.0238095,149.595238 85.0238095,151.552381 C85.0238095,153.360952 86.0438095,154.490476 87.9238095,154.490476 C89.2447619,154.490476 90.7152381,153.812381 92.1047619,152.606667 L92.1047619,152.606667 L92.1047619,148.161905 Z M127.124762,148.161905 L125.504762,148.161905 C121.13619,148.161905 120.041905,149.595238 120.041905,151.552381 C120.041905,153.360952 121.060952,154.490476 122.942857,154.490476 C124.259048,154.490476 125.730476,153.812381 127.125714,152.606667 L127.125714,152.606667 L127.124762,152.606667 L127.124762,148.161905 Z M132.458095,118.439048 C131.921905,125.417143 109.269524,126.884762 94.5228571,125.941905 C84.8295238,125.319048 82.9438095,123.757143 82.9438095,123.757143 C92.1514286,125.277143 107.68,125.552381 120.268571,123.182857 C130.876555,121.187466 132.33162,118.698928 132.449461,118.458012 L132.456074,118.443837 C132.457467,118.44066 132.458095,118.439048 132.458095,118.439048 Z M76.1590476,120.480952 C64.172381,118.535238 81.927619,111.752381 85.1771429,114.040952 C85.1771429,114.040952 84.1504762,113.969524 82.3533333,114.359048 C80.6304762,114.729524 75.1514286,116.493333 78.0714286,117.764762 C86.2,121.301905 115.464762,120.45619 124.718095,117.653333 C128.976429,116.361667 127.735387,114.738229 127.35859,114.352552 L127.317204,114.311619 C127.287036,114.282842 127.268571,114.267619 127.268571,114.267619 C135.746667,118.094286 108.848571,125.779048 76.1590476,120.480952 Z M91.5057143,107.635238 C91.5057143,107.635238 88.3780952,109.455238 93.7352381,110.070476 C100.224762,110.811429 103.541905,110.704762 110.692381,109.353333 C110.692381,109.353333 112.577143,110.531429 115.201905,111.552381 C99.167619,118.421905 78.912381,111.154286 91.5057143,107.635238 Z M89.5447619,98.6685714 C89.5447619,98.6685714 86.0361905,101.267619 91.3971429,101.821905 C98.3304762,102.537143 103.80381,102.59619 113.281905,100.771429 C113.281905,100.771429 114.589524,102.100952 116.649524,102.825714 C97.2666667,108.49619 75.6771429,103.272381 89.5447619,98.6685714 Z M119.407619,104.706667 C119.407619,104.706667 119.642857,104.493333 119.714286,104.301905 C135.080952,96.3190476 127.975238,88.6466667 123.01619,89.68 C121.80381,89.9333333 121.259048,90.152381 121.259048,90.152381 C121.259048,90.152381 121.711429,89.4438095 122.571429,89.14 C132.382857,85.692381 139.926667,99.312381 119.407619,104.706667 Z M93.0114286,89.3780952 C93.0114286,89.3780952 91.2907501,89.7868789 89.3973344,90.3770069 L89.0617242,90.4829834 C88.8933376,90.5368665 88.724315,90.5920574 88.5557199,90.6483997 L88.2194147,90.7625732 C84.9242137,91.8994664 82.0685238,93.4414286 87.7409524,94.2 C91.8019048,94.7428571 99.8914286,94.6180952 107.432381,93.9857143 C107.652415,93.9672449 107.872477,93.9480248 108.092284,93.9281311 L108.750659,93.8665067 C114.226038,93.3374172 119.365566,92.435599 119.752814,92.367011 L119.77619,92.3628571 L119.77619,92.3628571 C119.77619,92.3628571 117.605714,93.2942857 116.033333,94.3666667 C100.915238,98.3428571 71.7161905,96.4904762 80.1228571,92.4257143 C87.2304762,88.9866667 93.0114286,89.3780952 93.0114286,89.3780952 Z M120.708571,61.027619 C102.848571,71.3857143 106.146667,74.3885714 110.450476,80.4352381 C115.057143,86.9219048 105.025714,92.1 105.025714,92.1 C105.025714,92.1 110.015238,88.0085714 106.061905,83.4580952 C92.672381,68.027619 120.709524,61.027619 120.708571,61.027619 Z M110.451429,44.2980952 C110.451429,44.2980952 118.960952,52.8114286 102.379048,65.9 C89.0819048,76.4019048 99.3466667,82.3885714 102.373333,89.2314286 C94.6114286,82.227619 88.9180952,76.0619048 92.7371429,70.3247619 C94.3075429,67.9668952 96.6564175,65.9489859 99.1493541,63.9687026 L99.6855286,63.5448219 C100.223446,63.1212968 100.765897,62.6985077 101.30664,62.27348 L101.846583,61.8475958 L101.846583,61.8475958 L102.384,61.4195581 C107.740914,57.1262095 112.510857,52.4106667 110.451429,44.2980952 Z" id="shadow" fill="url(#linearGradient-9)" filter="url(#filter-10)"></path>
                <path d="M65.4019048,118.515238 L65.4019048,139.632381 C65.4019048,143.799048 65.0704762,145.48381 63.9733333,147.124762 C62.8809524,148.72381 61.1114286,149.989524 59.1761905,150.702857 L57.2819048,148.469524 C58.7552381,147.713333 60.0171429,146.493333 60.6047619,145.35619 C61.0926631,144.381305 61.3059076,143.137945 61.3210343,140.265419 L61.3219048,118.515238 L65.4019048,118.515238 Z M76.2809524,124.842857 C80.9895238,124.842857 82.9447619,127.10381 82.9447619,130.531429 L82.9447619,130.531429 L82.9447619,143.939048 L79.932381,143.939048 L79.6314286,141.90381 C77.9771429,143.337143 76.2047619,144.31619 73.8333333,144.31619 C70.1428571,144.31619 68.1828571,142.433333 68.1828571,139.12 C68.1828571,135.274286 71.1571429,132.717143 77.7485714,132.717143 L77.7485714,132.717143 L79.1047619,132.717143 L79.1047619,131.022857 C79.1047619,128.761905 77.9380952,127.669524 75.2238095,127.669524 C73.2657143,127.669524 71.2704762,128.195238 69.727619,128.761905 L69.727619,128.761905 L69.1638095,126.387619 C71.1228571,125.522857 73.532381,124.842857 76.2809524,124.842857 Z M111.300952,124.842857 C116.005714,124.842857 117.966667,127.10381 117.966667,130.531429 L117.966667,130.531429 L117.966667,143.939048 L114.954286,143.939048 L114.651429,141.90381 C112.992381,143.337143 111.222857,144.31619 108.850476,144.31619 C105.160952,144.31619 103.202857,142.433333 103.202857,139.12 C103.202857,135.274286 106.17619,132.717143 112.769524,132.717143 L112.769524,132.717143 L114.125714,132.717143 L114.125714,131.022857 C114.125714,128.761905 112.95619,127.669524 110.245714,127.669524 C108.287619,127.669524 106.289524,128.195238 104.746667,128.761905 L104.746667,128.761905 L104.181905,126.387619 C106.140952,125.522857 108.549524,124.842857 111.300952,124.842857 Z M89.387619,125.186667 L92.9647619,136.709524 L93.76,140.171429 C95.5657143,135.16381 96.8457143,130.08 97.4857143,125.187619 L101.553333,125.187619 C100.464762,131.36 98.5028571,138.138095 95.7561905,143.938095 L90.9685714,143.938095 L85.2057143,125.186667 L89.387619,125.186667 Z M79.1047619,135.161905 L77.4885714,135.161905 C73.1152381,135.161905 72.0238095,136.595238 72.0238095,138.552381 C72.0238095,140.360952 73.0438095,141.490476 74.9238095,141.490476 C76.2447619,141.490476 77.7152381,140.812381 79.1047619,139.606667 L79.1047619,139.606667 L79.1047619,135.161905 Z M114.124762,135.161905 L112.504762,135.161905 C108.13619,135.161905 107.041905,136.595238 107.041905,138.552381 C107.041905,140.360952 108.060952,141.490476 109.942857,141.490476 C111.259048,141.490476 112.730476,140.812381 114.125714,139.606667 L114.125714,139.606667 L114.124762,139.606667 L114.124762,135.161905 Z M119.458095,105.439048 C118.921905,112.417143 96.2695238,113.884762 81.5228571,112.941905 C71.8295238,112.319048 69.9438095,110.757143 69.9438095,110.757143 C79.1514286,112.277143 94.68,112.552381 107.268571,110.182857 C117.876555,108.187466 119.33162,105.698928 119.449461,105.458012 L119.456074,105.443837 C119.457467,105.44066 119.458095,105.439048 119.458095,105.439048 Z M63.1590476,107.480952 C51.172381,105.535238 68.927619,98.752381 72.1771429,101.040952 C72.1771429,101.040952 71.1504762,100.969524 69.3533333,101.359048 C67.6304762,101.729524 62.1514286,103.493333 65.0714286,104.764762 C73.2,108.301905 102.464762,107.45619 111.718095,104.653333 C115.976429,103.361667 114.735387,101.738229 114.35859,101.352552 L114.317204,101.311619 C114.287036,101.282842 114.268571,101.267619 114.268571,101.267619 C122.746667,105.094286 95.8485714,112.779048 63.1590476,107.480952 Z M78.5057143,94.6352381 C78.5057143,94.6352381 75.3780952,96.4552381 80.7352381,97.0704762 C87.2247619,97.8114286 90.5419048,97.7047619 97.692381,96.3533333 C97.692381,96.3533333 99.5771429,97.5314286 102.201905,98.552381 C86.167619,105.421905 65.912381,98.1542857 78.5057143,94.6352381 Z M76.5447619,85.6685714 C76.5447619,85.6685714 73.0361905,88.267619 78.3971429,88.8219048 C85.3304762,89.5371429 90.8038095,89.5961905 100.281905,87.7714286 C100.281905,87.7714286 101.589524,89.1009524 103.649524,89.8257143 C84.2666667,95.4961905 62.6771429,90.272381 76.5447619,85.6685714 Z M106.407619,91.7066667 C106.407619,91.7066667 106.642857,91.4933333 106.714286,91.3019048 C122.080952,83.3190476 114.975238,75.6466667 110.01619,76.68 C108.80381,76.9333333 108.259048,77.152381 108.259048,77.152381 C108.259048,77.152381 108.711429,76.4438095 109.571429,76.14 C119.382857,72.692381 126.926667,86.312381 106.407619,91.7066667 Z M80.0114286,76.3780952 C80.0114286,76.3780952 78.2907501,76.7868789 76.3973344,77.3770069 L76.0617242,77.4829834 C75.8933376,77.5368665 75.724315,77.5920574 75.5557199,77.6483997 L75.2194147,77.7625732 C71.9242137,78.8994664 69.0685238,80.4414286 74.7409524,81.2 C78.8019048,81.7428571 86.8914286,81.6180952 94.432381,80.9857143 C94.652415,80.9672449 94.8724769,80.9480248 95.0922842,80.9281311 L95.7506591,80.8665067 C101.226038,80.3374172 106.365566,79.435599 106.752814,79.367011 L106.77619,79.3628571 L106.77619,79.3628571 C106.77619,79.3628571 104.605714,80.2942857 103.033333,81.3666667 C87.9152381,85.3428571 58.7161905,83.4904762 67.1228571,79.4257143 C74.2304762,75.9866667 80.0114286,76.3780952 80.0114286,76.3780952 Z M107.708571,48.027619 C89.8485714,58.3857143 93.1466667,61.3885714 97.4504762,67.4352381 C102.057143,73.9219048 92.0257143,79.1 92.0257143,79.1 C92.0257143,79.1 97.0152381,75.0085714 93.0619048,70.4580952 C79.672381,55.027619 107.709524,48.027619 107.708571,48.027619 Z M97.4514286,31.2980952 C97.4514286,31.2980952 105.960952,39.8114286 89.3790476,52.9 C76.0819048,63.4019048 86.3466667,69.3885714 89.3733333,76.2314286 C81.6114286,69.227619 75.9180952,63.0619048 79.7371429,57.3247619 C81.3075429,54.9668952 83.6564175,52.9489859 86.1493541,50.9687026 L86.6855286,50.5448219 C87.2234457,50.1212968 87.7658971,49.6985077 88.3066405,49.27348 L88.8465832,48.8475958 L88.8465832,48.8475958 L89.384,48.4195581 C94.7409143,44.1262095 99.5108571,39.4106667 97.4514286,31.2980952 Z" id="Combined-Shape" fill="#FFFFFF"></path>
            </g>
        </g>
    </g>
</svg>