<?xml version="1.0" encoding="UTF-8"?>
<svg width="103px" height="32px" viewBox="0 0 103 32" version="1.1" xmlns="http://www.w3.org/2000/svg" xmlns:xlink="http://www.w3.org/1999/xlink">
    <title>logo-xheza</title>
    <g id="🖥-DESKTOP" stroke="none" stroke-width="1" fill="none" fill-rule="evenodd">
        <g id="Coming-Soon" transform="translate(-669.000000, -100.000000)">
            <g id="logo-xheza" transform="translate(669.000000, 100.000000)">
                <path d="M26.1626251,0 L26.1626251,18.3138375 C26.1626251,25.538447 20.3059219,31.3951501 13.0813125,31.3951501 C5.97915412,31.3951501 0.198925273,25.7352968 0.00502557542,18.6799898 L3.63797881e-12,18.3138375 L3.63797881e-12,0 L26.1626251,0 Z M22.2382313,3.92439376 L13.0813125,3.92439376 L13.0813125,27.4707563 C18.1385391,27.4707563 22.2382313,23.3710641 22.2382313,18.3138375 L22.2382313,3.92439376 Z" id="Shape" fill="#F6512C"></path>
                <path d="M44.9409408,3.9954319 L42.4645992,3.9954319 L40.3692332,6.86660806 L38.2565502,3.9954319 L35.7802086,3.9954319 L39.1916722,8.42326984 L35.6763061,12.9721815 L38.1526477,12.9721815 L40.3692332,9.96263538 L42.5685016,12.9721815 L45.0621603,12.9721815 L41.5294772,8.42326984 L44.9409408,3.9954319 Z M48.2191961,0 L46.1584643,0 L46.1584643,12.9721815 L48.2191961,12.9721815 L48.2191961,7.78330889 C48.2191961,6.36501705 49.0330986,5.55209367 50.3318791,5.55209367 C51.5613914,5.55209367 52.1155378,6.36501705 52.1155378,7.59305023 L52.1155378,12.9721815 L54.1762696,12.9721815 L54.1762696,7.3336066 C54.1762696,5.24076132 53.0160256,3.78787699 50.8340743,3.78787699 C49.5006596,3.78787699 48.6348059,4.35865298 48.2191961,4.96402145 L48.2191961,0 Z M57.9047688,9.08052704 L64.7450131,9.08052704 L64.7596244,8.67920017 C64.7612478,8.60379937 64.7623302,8.52272323 64.7623302,8.44056608 C64.7623302,5.8115373 63.0133057,3.78787699 60.3464763,3.78787699 C57.6796469,3.78787699 55.8786712,5.86342603 55.8786712,8.47515857 C55.8786712,11.1560761 57.6450127,13.1797364 60.3637933,13.1797364 C62.4591593,13.1797364 64.0523301,11.9171107 64.5891594,10.1355978 L62.5111105,10.1355978 C62.1820861,10.9312249 61.3681836,11.4155197 60.4157446,11.4155197 C58.9784274,11.4155197 58.0606225,10.4988189 57.9047688,9.08052704 Z M60.3464763,5.46561246 C61.679891,5.46561246 62.5457447,6.31312832 62.7189154,7.55845774 L57.939403,7.55845774 C58.1472079,6.33042456 59.0130616,5.46561246 60.3464763,5.46561246 Z M73.2010736,5.67316737 L73.2010736,3.9954319 L65.7374146,3.9954319 L65.7374146,5.77694482 L70.6035125,5.77694482 L65.6681463,11.294446 L65.6681463,12.9721815 L73.2703419,12.9721815 L73.2703419,11.1906686 L68.2483904,11.1906686 L73.2010736,5.67316737 Z M81.3800609,4.01272814 L81.3800609,5.29265004 C80.8085974,4.35865298 79.7522559,3.80517323 78.3495729,3.80517323 C75.7000606,3.80517323 74.1934751,5.932611 74.1934751,8.49245481 C74.1934751,11.0522986 75.7000606,13.1797364 78.3495729,13.1797364 C79.7522559,13.1797364 80.8085974,12.6262566 81.3800609,11.6922596 L81.3800609,12.9721815 L83.284939,12.9721815 L83.284939,4.01272814 L81.3800609,4.01272814 Z M76.2542069,8.49245481 C76.2542069,6.88390431 77.2239631,5.62127864 78.7824997,5.62127864 C80.3583535,5.62127864 81.3107926,6.88390431 81.3107926,8.49245481 C81.3107926,10.1010053 80.3583535,11.363631 78.7824997,11.363631 C77.2239631,11.363631 76.2542069,10.1010053 76.2542069,8.49245481 Z M36.351672,23.3178051 C36.351672,25.9122414 38.1872819,28.0050866 40.8367942,28.0050866 C43.5036236,28.0050866 44.8543554,26.1543888 45.0967944,24.5458383 L42.9841114,24.5458383 C42.7416724,25.5144278 41.9277699,26.1889812 40.8194771,26.1889812 C39.3475258,26.1889812 38.4124038,24.9955405 38.4124038,23.3178051 C38.4124038,21.6227734 39.3475258,20.4293327 40.8194771,20.4293327 C41.9277699,20.4293327 42.7416724,21.1038861 42.9841114,22.0724757 L45.0967944,22.0724757 C44.8543554,20.4639251 43.5036236,18.6132273 40.8367942,18.6132273 C38.1872819,18.6132273 36.351672,20.7060725 36.351672,23.3178051 Z M53.2065134,18.8380784 L53.2065134,20.1180003 C52.63505,19.1840032 51.5787085,18.6305235 50.1760255,18.6305235 C47.5265131,18.6305235 46.0199277,20.7579613 46.0199277,23.3178051 C46.0199277,25.8776489 47.5265131,28.0050866 50.1760255,28.0050866 C51.5787085,28.0050866 52.63505,27.4516069 53.2065134,26.5176098 L53.2065134,27.7975317 L55.1113916,27.7975317 L55.1113916,18.8380784 L53.2065134,18.8380784 Z M48.0806595,23.3178051 C48.0806595,21.7092546 49.0504156,20.4466289 50.6089523,20.4466289 C52.1848061,20.4466289 53.1372451,21.7092546 53.1372451,23.3178051 C53.1372451,24.9263556 52.1848061,26.1889812 50.6089523,26.1889812 C49.0504156,26.1889812 48.0806595,24.9263556 48.0806595,23.3178051 Z M63.9137935,19.9969266 C63.4115984,19.235892 62.4418422,18.6132273 61.0391592,18.6132273 C58.3896469,18.6132273 56.8830615,20.740665 56.8830615,23.3178051 C56.8830615,25.8776489 58.3896469,28.0050866 61.0391592,28.0050866 C62.4418422,28.0050866 63.4981838,27.4516069 64.0696472,26.5176098 L64.0696472,27.7975317 L65.9745253,27.7975317 L65.9745253,14.8253503 L63.9137935,14.8253503 L63.9137935,19.9969266 Z M64.0003789,23.3178051 C64.0003789,24.9263556 63.0479398,26.1889812 61.4720861,26.1889812 C59.9135494,26.1889812 58.9437933,24.9263556 58.9437933,23.3178051 C58.9437933,21.6746621 59.9135494,20.4293327 61.4720861,20.4293327 C63.0479398,20.4293327 64.0003789,21.6746621 64.0003789,23.3178051 Z M69.78961,23.9058773 L76.6298542,23.9058773 L76.6464272,23.387767 L76.6464272,23.387767 L76.6471713,23.2659163 C76.6471713,20.6368876 74.8981468,18.6132273 72.2313174,18.6132273 C69.564488,18.6132273 67.7635123,20.6887763 67.7635123,23.3005088 C67.7635123,25.9814263 69.5298539,28.0050866 72.2486345,28.0050866 C74.3440005,28.0050866 75.9371713,26.742461 76.4740006,24.9609481 L74.3959517,24.9609481 C74.0669273,25.7565752 73.2530248,26.24087 72.3005857,26.24087 C70.8632686,26.24087 69.9454636,25.3241691 69.78961,23.9058773 Z M72.2313174,20.2909627 C73.5647321,20.2909627 74.4305858,21.1384786 74.6037566,22.383808 L69.8242441,22.383808 C70.032049,21.1557748 70.8979027,20.2909627 72.2313174,20.2909627 Z M86.2288416,22.6432516 C86.2288416,21.1903673 87.025427,20.3774439 88.2549393,20.3774439 C89.5017686,20.3774439 89.9520125,21.2595523 89.9520125,22.4184005 L89.9520125,27.7975317 L92.0127443,27.7975317 L92.0127443,22.1589569 C92.0127443,20.1180003 90.9044516,18.6132273 88.7398173,18.6132273 C87.3544514,18.6132273 86.3846953,19.166707 85.6920123,20.0315191 C85.1898172,19.166707 84.2893293,18.6132273 82.9905487,18.6132273 C81.5532316,18.6132273 80.6873779,19.3050769 80.3064023,20.0142229 L80.3064023,18.8207822 L78.4015241,18.8207822 L78.4015241,27.7975317 L80.4622559,27.7975317 L80.4622559,22.5740667 C80.4622559,21.2076636 81.2415243,20.3774439 82.4710365,20.3774439 C83.7005488,20.3774439 84.1681098,21.242256 84.1681098,22.4184005 L84.1681098,27.7975317 L86.2288416,27.7975317 L86.2288416,22.6432516 Z M95.2217314,31.3951501 L96.7456339,27.7283468 L93.1263654,18.8207822 L95.3256338,18.8207822 L97.7673413,25.3241691 L100.243683,18.8207822 L102.391,18.8207822 L97.2651461,31.3951501 L95.2217314,31.3951501 Z" id="xhezacademy" fill="#000000" fill-rule="nonzero"></path>
            </g>
        </g>
    </g>
</svg>